{"glyphs":{"0":{"ha":782,"x_min":48,"x_max":733,"o":"m 383 949 q 583 872 500 949 l 608 910 q 665 949 633 949 q 711 928 689 949 q 733 882 733 907 q 717 839 733 870 l 667 761 q 733 463 733 627 q 713 293 733 378 q 650 136 693 207 q 540 20 608 64 q 383 -24 473 -24 q 200 47 287 -24 l 188 26 q 159 -11 173 3 q 121 -24 144 -24 q 71 -4 94 -24 q 48 42 48 15 q 53 61 48 52 q 66 81 58 69 q 79 99 75 93 l 115 153 q 48 457 48 276 q 162 840 48 713 q 264 918 205 888 q 383 949 323 949 m 464 689 q 383 740 429 740 q 267 458 267 740 q 270 390 267 453 l 464 689 m 315 223 q 383 185 339 185 q 464 234 434 185 q 504 347 493 283 q 515 463 515 410 q 511 524 515 487 l 315 223 z "},"1":{"ha":782,"x_min":151,"x_max":531,"o":"m 319 739 l 256 739 q 181 764 211 739 q 151 832 151 789 q 181 901 151 876 q 256 926 211 926 l 418 926 q 501 897 472 926 q 531 812 531 867 l 531 103 q 503 20 531 54 q 425 -14 475 -14 q 348 20 377 -14 q 319 103 319 54 l 319 739 z "},"2":{"ha":782,"x_min":74,"x_max":714,"o":"m 389 188 l 610 188 q 684 162 655 188 q 714 93 714 137 q 684 25 714 50 q 610 0 654 0 l 190 0 q 97 29 126 0 q 74 97 74 53 q 89 143 75 122 q 129 192 103 164 q 175 243 133 196 q 252 330 217 291 q 308 395 286 370 q 342 433 331 420 q 440 556 403 503 q 476 659 476 609 q 466 706 476 684 q 435 742 455 728 q 390 755 415 755 q 286 663 311 755 q 267 598 275 620 q 239 561 258 577 q 185 545 219 545 q 114 574 140 545 q 87 649 87 604 q 113 764 87 709 q 182 861 138 819 q 283 926 227 902 q 399 949 339 949 q 511 929 457 949 q 606 871 564 908 q 671 783 647 834 q 694 672 694 732 q 663 529 694 594 q 574 390 632 464 q 389 188 481 278 z "},"3":{"ha":782,"x_min":65,"x_max":720,"o":"m 565 511 q 678 417 641 471 q 720 279 720 356 q 694 156 720 212 q 622 59 668 100 q 518 -2 577 19 q 393 -24 459 -24 q 197 29 279 -24 q 107 118 144 65 q 65 228 69 171 q 95 297 65 267 q 162 328 124 328 q 243 283 218 328 l 267 243 q 315 192 284 212 q 379 172 346 172 q 467 205 433 172 q 502 292 502 238 q 386 396 502 386 q 311 418 331 402 q 278 490 278 445 q 291 540 278 523 q 322 566 304 558 q 380 585 341 574 q 469 682 469 608 q 442 734 467 715 q 383 754 417 754 q 275 693 328 754 q 182 639 226 639 q 119 666 146 639 q 93 730 93 694 q 122 821 93 780 q 195 890 150 862 q 293 933 241 918 q 390 949 346 949 q 583 885 503 949 q 645 805 623 852 q 668 708 668 759 q 644 596 668 641 q 565 511 620 551 z "},"4":{"ha":782,"x_min":40,"x_max":739,"o":"m 422 199 l 153 199 q 73 221 105 199 q 40 288 40 243 q 52 332 40 312 l 325 839 q 387 912 349 883 q 472 940 426 940 q 579 895 538 940 q 620 783 620 850 l 620 385 l 642 385 q 709 362 681 385 q 739 300 736 339 q 706 227 739 256 q 631 199 673 199 l 620 199 l 620 96 q 593 18 620 49 q 521 -14 567 -14 q 448 18 475 -14 q 422 96 422 49 l 422 199 m 422 385 l 422 676 l 268 385 l 422 385 z "},"5":{"ha":782,"x_min":50,"x_max":697,"o":"m 345 739 l 331 620 q 422 633 383 633 q 569 594 507 633 q 664 487 631 555 q 697 336 697 419 q 656 153 697 235 q 537 24 614 71 q 358 -24 460 -24 q 119 50 227 -24 q 50 161 50 99 q 77 229 50 198 q 140 260 103 260 q 205 240 169 260 l 250 214 q 353 185 299 185 q 445 229 411 185 q 479 333 479 274 q 448 426 479 389 q 362 464 416 464 q 299 450 326 464 l 253 426 q 219 418 236 420 q 149 442 175 418 q 122 503 122 465 q 128 560 122 507 q 144 702 134 614 q 158 824 154 789 q 189 895 163 865 q 257 925 215 925 l 583 925 q 657 901 627 925 q 686 832 686 876 q 656 764 686 789 q 583 739 627 739 l 345 739 z "},"6":{"ha":782,"x_min":64,"x_max":738,"o":"m 388 585 q 457 597 427 597 q 597 559 532 597 q 700 455 662 520 q 738 313 738 389 q 695 140 738 217 q 577 20 653 63 q 406 -24 501 -24 q 232 17 310 -24 q 109 132 154 57 q 64 303 64 206 q 116 520 64 413 q 254 739 168 627 q 372 883 304 806 q 476 949 429 949 q 548 923 515 949 q 582 861 582 898 q 540 768 582 812 l 496 721 q 388 585 456 679 m 282 304 q 317 220 282 255 q 400 185 352 185 q 484 220 449 185 q 519 304 519 255 q 484 387 519 352 q 400 422 449 422 q 317 387 352 422 q 282 304 282 352 z "},"7":{"ha":782,"x_min":67,"x_max":701,"o":"m 454 739 l 171 739 q 97 764 126 739 q 67 833 67 789 q 96 902 67 877 q 171 926 126 926 l 586 926 q 671 897 642 926 q 701 824 701 867 q 683 760 701 798 l 382 70 q 276 -18 345 -18 q 224 -5 250 -18 q 183 32 199 8 q 167 86 167 56 q 178 133 170 117 l 454 739 z "},"8":{"ha":782,"x_min":50,"x_max":732,"o":"m 603 508 q 694 419 669 462 q 732 286 732 361 q 687 121 732 192 q 564 13 642 51 q 392 -24 486 -24 q 219 13 297 -24 q 95 121 141 51 q 50 286 50 192 q 87 419 50 358 q 179 508 116 464 q 114 595 134 550 q 93 701 93 640 q 118 807 93 760 q 184 885 142 853 q 281 933 227 917 q 392 949 335 949 q 537 920 469 949 q 648 835 606 891 q 690 701 690 779 q 670 594 690 638 q 603 508 649 550 m 297 675 q 326 609 297 637 q 392 581 354 581 q 458 608 430 581 q 485 675 485 636 q 458 741 485 713 q 392 769 430 769 q 326 741 354 769 q 297 675 297 713 m 268 306 q 304 218 268 255 q 392 182 341 182 q 453 199 425 182 q 498 244 481 215 q 515 306 515 273 q 506 353 515 331 q 479 392 496 375 q 439 419 461 410 q 392 429 417 429 q 330 412 359 429 q 285 367 301 395 q 268 306 268 338 z "},"9":{"ha":782,"x_min":54,"x_max":728,"o":"m 404 340 q 335 328 362 328 q 193 366 258 328 q 92 470 129 405 q 54 612 54 536 q 96 785 54 708 q 214 906 138 862 q 386 949 290 949 q 559 908 481 949 q 683 793 637 868 q 728 622 728 719 q 676 405 728 511 q 537 186 624 298 q 419 42 482 115 q 368 -6 392 11 q 315 -24 344 -24 q 243 2 276 -24 q 210 64 210 27 q 251 157 210 112 l 296 205 q 404 340 333 245 m 510 622 q 474 705 510 670 q 390 740 439 740 q 307 705 342 740 q 272 622 272 670 q 307 538 272 573 q 390 503 342 503 q 474 538 439 503 q 510 622 510 573 z "},"\u0001":{"ha":1042,"x_min":174,"x_max":868,"o":"m 174 0 l 174 868 l 868 868 l 868 0 l 174 0 m 846 22 l 846 846 l 196 846 l 196 22 l 846 22 z "},"\u0000":{"ha":0,"x_min":0,"x_max":0,"o":""},"\t":{"ha":0,"x_min":0,"x_max":0,"o":""}," ":{"ha":390,"x_min":0,"x_max":0,"o":""},"!":{"ha":399,"x_min":86,"x_max":313,"o":"m 86 90 q 120 169 86 136 q 200 203 154 203 q 256 187 230 203 q 297 146 282 172 q 313 90 313 120 q 279 10 313 44 q 200 -24 246 -24 q 120 10 153 -24 q 86 90 86 43 m 310 836 l 310 388 q 283 307 310 339 q 208 275 256 275 q 134 307 161 275 q 107 388 107 340 l 107 836 q 134 916 107 884 q 208 949 160 949 q 282 917 255 949 q 310 836 310 884 z "},"\"":{"ha":657,"x_min":82,"x_max":604,"o":"m 100 633 l 258 907 q 323 949 283 949 q 363 932 345 948 q 382 892 382 917 q 362 849 377 865 l 160 598 q 117 561 136 565 q 82 581 86 561 q 100 633 82 603 m 322 633 l 480 907 q 546 949 505 949 q 586 932 568 948 q 604 892 604 917 q 585 849 600 865 l 382 598 q 339 561 359 565 q 304 581 308 561 q 322 633 304 602 z "},"#":{"ha":782,"x_min":19,"x_max":764,"o":"m 380 628 l 537 628 l 590 758 q 628 792 601 788 q 662 781 647 792 q 679 753 678 770 q 675 725 679 738 l 636 628 l 714 628 q 749 616 735 628 q 764 583 764 604 q 749 550 764 562 q 714 537 735 537 l 597 537 l 535 383 l 618 383 q 653 372 639 383 q 667 340 667 360 q 653 308 667 320 q 618 296 638 296 l 500 296 l 446 162 q 410 129 434 133 q 375 140 391 129 q 358 168 359 151 q 362 196 358 183 l 403 296 l 249 296 l 199 172 q 157 129 183 134 q 122 140 138 129 q 104 168 106 150 q 110 197 104 179 l 149 296 l 68 296 q 34 308 49 296 q 19 340 19 321 q 34 371 19 360 q 68 383 48 383 l 188 383 l 250 537 l 167 537 q 131 550 146 537 q 117 583 117 562 q 131 615 117 603 q 167 628 146 628 l 285 628 l 339 758 q 376 792 350 788 q 410 781 395 792 q 426 753 425 770 q 421 725 426 742 l 380 628 m 346 537 l 283 383 l 439 383 l 502 537 l 346 537 z "},"$":{"ha":782,"x_min":58,"x_max":707,"o":"m 451 939 q 647 810 647 907 q 617 739 647 768 q 546 710 588 710 q 521 712 533 710 q 489 721 508 715 q 460 730 469 728 q 385 744 419 744 q 317 725 348 744 q 282 671 285 705 q 305 622 282 638 q 365 596 328 606 q 482 558 430 578 q 604 501 555 534 q 680 417 653 468 q 707 292 707 366 q 637 96 707 175 q 451 -4 576 25 l 451 -93 q 434 -146 451 -125 q 385 -168 416 -168 q 335 -146 354 -168 q 317 -93 317 -124 l 317 -13 q 165 19 234 -6 q 58 133 58 60 q 84 205 58 172 q 147 237 110 237 q 194 231 175 237 l 268 205 q 370 186 333 186 q 452 211 417 186 q 488 282 488 236 q 443 350 488 326 q 315 394 412 366 q 203 430 240 415 q 132 476 165 445 q 78 555 97 510 q 60 647 60 600 q 70 723 60 686 q 99 793 79 761 q 146 854 118 826 q 317 938 210 914 l 317 1018 q 335 1071 317 1049 q 385 1093 354 1093 q 433 1071 415 1093 q 451 1018 451 1049 l 451 939 z "},"%":{"ha":1153,"x_min":43,"x_max":1113,"o":"m 43 647 q 87 844 43 765 q 159 921 113 891 q 254 951 204 951 q 379 906 329 951 q 451 791 428 860 q 474 649 474 722 q 451 506 474 575 q 378 391 428 437 q 254 346 329 346 q 159 376 204 346 q 87 451 114 406 q 43 647 43 531 m 258 476 q 322 528 309 476 q 336 650 336 580 q 322 772 336 720 q 258 824 309 824 q 194 771 208 824 q 180 646 180 718 q 195 527 180 578 q 258 476 209 476 m 682 296 q 726 493 682 413 q 798 569 753 540 q 893 598 843 598 q 1017 553 967 598 q 1090 439 1067 508 q 1113 296 1113 370 q 1090 154 1113 223 q 1017 40 1067 85 q 893 -5 967 -5 q 798 24 843 -5 q 726 100 753 53 q 682 296 682 180 m 897 124 q 961 176 948 124 q 975 297 975 228 q 961 420 975 368 q 897 472 948 472 q 833 419 847 472 q 820 294 820 366 q 897 124 820 124 m 357 86 l 681 901 q 736 949 701 945 q 788 933 768 949 q 811 893 809 918 q 804 853 811 874 l 474 24 q 419 -25 457 -19 q 368 -9 389 -25 q 345 32 347 7 q 357 86 345 55 z "},"&":{"ha":971,"x_min":43,"x_max":910,"o":"m 539 507 l 672 364 l 749 446 q 810 476 775 474 q 872 452 846 476 q 901 393 899 427 q 869 310 901 346 l 800 233 l 858 174 q 907 105 900 130 q 910 82 910 97 q 889 22 910 50 q 836 -14 867 -5 q 814 -17 822 -17 q 733 21 768 -17 l 655 101 q 557 31 601 54 q 361 -24 457 -24 q 202 11 275 -24 q 86 112 129 46 q 43 264 43 177 q 237 550 43 420 q 156 738 156 642 q 199 853 156 805 q 308 925 242 901 q 439 949 373 949 q 649 885 571 949 q 699 821 680 860 q 718 743 718 783 q 669 603 718 662 q 539 507 620 543 m 432 618 q 499 662 474 639 q 524 724 524 686 q 497 769 520 752 q 445 786 474 786 q 394 769 416 786 q 370 724 372 752 q 393 664 370 689 l 432 618 m 347 426 q 272 360 298 392 q 246 282 246 328 q 264 220 246 247 q 313 177 283 192 q 378 162 343 162 q 452 181 416 162 q 532 233 488 200 l 347 426 z "},"’":{"ha":382,"x_min":58,"x_max":343,"o":"m 70 712 l 182 908 q 253 950 205 950 q 315 925 287 950 q 343 867 343 900 q 332 824 343 842 l 223 628 q 149 585 198 585 q 85 611 112 585 q 58 675 58 638 q 70 712 58 695 z "},"(":{"ha":365,"x_min":56,"x_max":325,"o":"m 56 388 q 68 572 56 482 q 105 750 80 663 q 182 926 147 893 q 233 949 199 946 q 296 927 268 949 q 325 871 325 904 q 314 828 323 851 q 235 382 235 618 q 314 -64 235 145 q 325 -107 325 -92 q 296 -163 325 -140 q 233 -185 268 -185 q 147 -104 179 -182 q 107 14 127 -59 q 56 388 56 180 z "},")":{"ha":365,"x_min":43,"x_max":313,"o":"m 313 388 q 262 14 313 181 q 186 -162 221 -127 q 135 -185 168 -182 q 72 -163 100 -185 q 43 -107 43 -140 q 54 -64 43 -91 q 133 382 133 145 q 54 828 133 618 q 43 871 43 855 q 72 927 43 904 q 135 949 100 949 q 221 868 189 945 q 261 750 241 822 q 313 388 313 583 z "},"*":{"ha":578,"x_min":67,"x_max":510,"o":"m 347 801 l 396 847 q 436 863 411 863 q 485 838 466 861 q 507 786 505 816 q 471 729 507 744 l 403 703 l 463 681 q 510 621 510 664 q 489 567 510 590 q 439 545 469 545 q 403 555 416 545 l 347 602 l 356 540 q 357 522 357 533 q 338 472 357 491 q 289 453 319 453 q 239 472 259 453 q 219 522 219 492 q 221 540 219 533 l 231 602 l 174 555 q 138 545 160 545 q 87 568 107 545 q 67 621 67 591 q 114 681 67 664 l 174 703 l 105 729 q 71 786 71 744 q 92 837 71 814 q 140 863 112 861 q 182 847 164 863 l 231 801 l 223 867 q 222 893 222 875 q 242 934 222 919 q 289 949 261 949 q 336 934 316 949 q 356 893 356 919 q 353 867 356 885 l 347 801 z "},"+":{"ha":736,"x_min":32,"x_max":703,"o":"m 32 551 l 313 551 l 313 829 l 421 829 l 421 551 l 703 551 l 703 449 l 421 449 l 421 170 l 313 170 l 313 449 l 32 449 l 32 551 z "},",":{"ha":413,"x_min":42,"x_max":358,"o":"m 54 -60 l 179 157 q 258 203 207 203 q 328 175 297 203 q 358 110 358 148 q 347 62 358 87 l 225 -154 q 143 -203 198 -203 q 72 -173 102 -203 q 42 -103 42 -144 q 54 -60 44 -80 z "},"-":{"ha":476,"x_min":67,"x_max":410,"o":"m 164 469 l 313 469 q 382 447 355 469 q 410 383 410 424 q 382 319 410 343 q 313 296 354 296 l 164 296 q 95 319 123 296 q 67 383 67 342 q 95 446 67 424 q 164 469 122 469 z "},".":{"ha":413,"x_min":93,"x_max":319,"o":"m 93 90 q 127 169 93 136 q 207 203 160 203 q 263 188 237 203 q 304 146 289 172 q 319 90 319 120 q 286 10 319 44 q 207 -24 253 -24 q 126 10 160 -24 q 93 90 93 43 z "},"/":{"ha":663,"x_min":58,"x_max":606,"o":"m 598 850 l 194 -125 q 132 -190 170 -190 q 83 -175 105 -190 q 58 -135 60 -159 q 74 -75 58 -115 l 478 901 q 533 950 495 950 q 583 934 561 950 q 606 893 605 919 q 598 850 606 867 z "},":":{"ha":413,"x_min":93,"x_max":319,"o":"m 93 493 q 127 572 93 539 q 207 606 160 606 q 263 590 237 606 q 304 549 289 575 q 319 493 319 523 q 286 413 319 447 q 207 379 253 379 q 126 413 160 379 q 93 493 93 446 m 93 90 q 127 169 93 136 q 207 203 160 203 q 263 188 237 203 q 304 146 289 172 q 319 90 319 120 q 286 10 319 44 q 207 -24 253 -24 q 126 10 160 -24 q 93 90 93 43 z "},";":{"ha":413,"x_min":40,"x_max":357,"o":"m 126 493 q 160 573 126 539 q 240 607 194 607 q 319 573 286 607 q 353 493 353 539 q 319 413 353 447 q 240 379 286 379 q 160 413 194 379 q 126 493 126 447 m 53 -60 l 178 157 q 257 203 205 203 q 326 175 295 203 q 357 110 357 148 q 346 62 357 87 l 223 -154 q 142 -203 197 -203 q 71 -173 101 -203 q 40 -103 40 -144 q 53 -60 42 -80 z "},"<":{"ha":736,"x_min":67,"x_max":668,"o":"m 668 882 l 668 661 l 301 468 l 668 275 l 668 56 l 67 376 l 67 563 l 668 882 z "},"=":{"ha":736,"x_min":33,"x_max":704,"o":"m 33 655 l 704 655 l 704 554 l 33 554 l 33 655 m 33 446 l 704 446 l 704 345 l 33 345 l 33 446 z "},">":{"ha":736,"x_min":68,"x_max":669,"o":"m 68 56 l 68 276 l 435 469 l 70 663 l 70 882 l 669 561 l 669 376 l 68 56 z "},"?":{"ha":712,"x_min":47,"x_max":672,"o":"m 225 90 q 258 169 225 136 q 337 203 292 203 q 418 169 385 203 q 451 90 451 136 q 418 10 451 43 q 337 -24 385 -24 q 258 10 291 -24 q 225 90 225 44 m 442 383 q 428 304 442 333 q 390 267 415 281 q 339 253 365 253 q 284 268 307 253 q 249 310 261 283 q 237 367 237 336 l 237 454 q 258 517 237 498 q 325 543 279 535 q 442 654 442 561 q 410 718 442 694 q 337 742 379 742 q 236 678 282 742 q 147 620 194 620 q 76 648 104 620 q 47 721 47 677 q 93 840 47 788 q 210 921 140 892 q 346 949 280 949 q 467 929 409 949 q 572 871 525 909 q 645 780 618 833 q 672 663 672 727 q 611 481 672 553 q 442 383 549 408 z "},"@":{"ha":978,"x_min":46,"x_max":932,"o":"m 815 267 q 719 208 762 224 q 608 192 677 192 q 553 214 583 192 q 522 258 523 237 q 389 200 458 200 q 265 254 312 200 q 223 375 223 300 q 235 453 223 409 q 358 640 266 568 q 521 704 438 704 q 584 691 560 704 q 628 649 608 678 q 708 700 661 700 q 749 686 733 700 q 764 649 764 672 q 761 629 764 643 l 674 301 q 722 321 690 301 q 772 364 753 340 q 803 406 792 389 q 821 452 813 423 q 829 522 829 480 q 786 680 829 610 q 668 789 742 750 q 508 828 594 828 q 325 779 411 828 q 189 646 239 730 q 138 464 138 562 q 239 190 138 295 q 359 104 289 135 q 504 74 429 74 q 630 95 571 74 q 733 146 689 117 q 805 203 777 176 q 839 236 833 231 q 895 264 870 264 q 918 235 918 264 q 815 104 906 181 q 498 -13 677 -13 q 301 36 396 -13 q 143 165 207 84 q 46 472 46 290 q 88 650 46 563 q 201 799 131 738 q 345 885 265 855 q 510 915 425 915 q 670 887 593 915 q 805 806 747 858 q 898 682 864 754 q 932 524 932 609 q 902 379 932 448 q 815 267 871 311 m 376 454 q 370 407 370 429 q 436 331 370 334 q 519 366 482 331 q 568 449 556 401 q 575 497 575 475 q 502 574 575 574 q 423 537 457 574 q 376 454 388 500 z "},"A":{"ha":885,"x_min":31,"x_max":861,"o":"m 624 176 l 268 176 l 246 96 q 151 -14 217 -14 q 72 8 106 -14 q 31 71 37 30 q 39 138 31 114 l 289 825 q 350 911 308 879 q 446 944 391 944 q 542 912 500 944 q 603 825 584 879 l 853 138 q 861 71 861 113 q 821 8 857 30 q 740 -14 786 -14 q 686 13 710 -14 q 653 74 663 39 l 624 176 m 560 367 l 447 720 l 335 367 l 560 367 z "},"B":{"ha":830,"x_min":86,"x_max":778,"o":"m 586 511 q 703 453 661 489 q 778 283 778 386 q 741 139 778 204 q 639 37 704 74 q 494 0 574 0 l 215 0 q 120 34 154 0 q 86 129 86 68 l 86 797 q 120 892 86 858 q 215 926 154 926 l 426 926 q 618 868 549 926 q 675 795 654 838 q 696 706 696 751 q 670 591 696 635 q 586 511 645 547 m 299 185 l 446 185 q 535 217 508 185 q 557 290 557 240 q 440 385 551 385 l 299 385 l 299 185 m 299 574 l 406 574 q 470 599 444 574 q 496 663 496 624 q 466 720 496 700 q 396 740 435 740 l 299 740 l 299 574 z "},"C":{"ha":836,"x_min":52,"x_max":794,"o":"m 52 490 q 85 672 52 588 q 180 819 118 756 q 326 915 241 881 q 510 949 410 949 q 628 935 564 949 q 739 889 692 921 q 786 806 786 857 q 765 734 786 763 q 703 706 743 706 q 624 726 678 706 q 515 750 565 750 q 382 712 435 750 q 303 610 329 674 q 278 467 278 546 q 357 233 278 307 q 514 175 419 175 q 598 189 566 175 l 661 218 q 703 228 686 228 q 770 198 746 228 q 794 128 794 168 q 729 29 794 68 q 503 -24 641 -24 q 335 7 416 -24 q 193 96 254 38 q 52 490 52 230 z "},"D":{"ha":926,"x_min":86,"x_max":882,"o":"m 86 132 l 86 797 q 120 892 86 858 q 215 926 154 926 l 415 926 q 711 842 596 926 q 839 677 795 780 q 882 463 882 575 q 830 225 882 330 q 679 60 778 119 q 446 0 579 0 l 213 3 q 120 37 153 3 q 86 132 86 72 m 299 185 l 404 185 q 582 247 523 185 q 655 463 655 325 q 571 683 655 610 q 380 740 507 740 l 299 740 l 299 185 z "},"E":{"ha":682,"x_min":86,"x_max":624,"o":"m 299 736 l 299 560 l 497 560 q 572 534 542 560 q 603 464 603 509 q 572 395 603 421 q 497 370 541 370 l 299 370 l 299 190 l 518 190 q 594 165 564 190 q 624 95 624 140 q 593 26 624 51 q 518 0 563 0 l 215 0 q 120 34 154 0 q 86 129 86 68 l 86 797 q 120 892 86 858 q 215 926 154 926 l 518 926 q 594 901 564 926 q 624 830 624 876 q 593 762 624 787 q 518 736 563 736 l 299 736 z "},"F":{"ha":676,"x_min":86,"x_max":628,"o":"m 299 736 l 299 551 l 488 551 q 563 526 533 551 q 593 457 593 502 q 563 388 593 413 q 488 362 533 362 l 299 362 l 299 104 q 271 20 299 54 q 193 -14 243 -14 q 115 20 144 -14 q 86 104 86 54 l 86 797 q 120 892 86 858 q 215 926 154 926 l 522 926 q 598 901 568 926 q 628 830 628 876 q 597 762 628 787 q 522 736 567 736 l 299 736 z "},"G":{"ha":972,"x_min":43,"x_max":928,"o":"m 710 358 l 586 358 q 511 384 542 358 q 480 453 480 409 q 511 522 480 497 q 586 547 541 547 l 814 547 q 902 513 876 547 q 928 413 928 479 q 807 101 928 229 q 503 -24 688 -24 q 314 14 403 -24 q 160 124 224 52 q 43 471 43 257 q 104 711 43 601 q 272 885 165 821 q 510 949 379 949 q 771 882 659 949 q 864 765 859 828 q 836 693 864 723 q 771 663 809 663 q 696 689 739 663 l 642 724 q 511 758 589 758 q 379 716 433 758 q 297 606 324 674 q 270 461 270 538 q 296 317 270 384 q 376 208 322 250 q 508 167 430 167 q 664 237 612 167 q 710 358 695 279 z "},"H":{"ha":990,"x_min":85,"x_max":904,"o":"m 692 379 l 297 379 l 297 104 q 269 20 297 54 q 192 -14 241 -14 q 114 20 142 -14 q 85 104 85 54 l 85 822 q 113 906 85 872 q 192 940 142 940 q 269 906 241 940 q 297 822 297 872 l 297 569 l 692 569 l 692 822 q 720 906 692 872 q 797 940 748 940 q 875 906 846 940 q 904 822 904 872 l 904 104 q 876 20 904 54 q 797 -14 847 -14 q 720 20 748 -14 q 692 104 692 54 l 692 379 z "},"I":{"ha":383,"x_min":86,"x_max":299,"o":"m 86 104 l 86 822 q 115 906 86 872 q 193 940 143 940 q 271 906 242 940 q 299 822 299 872 l 299 104 q 271 20 299 54 q 193 -14 243 -14 q 115 20 144 -14 q 86 104 86 54 z "},"J":{"ha":604,"x_min":10,"x_max":526,"o":"m 526 821 l 526 294 q 514 162 526 220 q 465 60 502 103 q 375 -3 431 18 q 258 -24 318 -24 q 90 11 171 -24 q 10 122 10 45 q 37 190 10 160 q 101 222 64 220 q 176 199 137 222 q 242 175 218 175 q 313 294 313 175 l 313 821 q 341 905 313 871 q 419 939 370 939 q 497 905 469 939 q 526 821 526 871 z "},"K":{"ha":875,"x_min":86,"x_max":843,"o":"m 299 415 l 299 104 q 271 20 299 54 q 193 -14 243 -14 q 115 20 144 -14 q 86 104 86 54 l 86 822 q 115 906 86 872 q 193 940 143 940 q 271 906 242 940 q 299 822 299 872 l 299 561 l 590 887 q 682 940 635 940 q 756 912 725 940 q 787 842 787 883 q 743 743 787 790 l 502 497 l 783 199 q 828 142 813 166 q 843 83 843 118 q 813 12 843 39 q 739 -14 784 -14 q 646 36 691 -14 l 299 415 z "},"L":{"ha":617,"x_min":86,"x_max":624,"o":"m 299 190 l 518 190 q 594 165 564 190 q 624 95 624 140 q 593 26 624 51 q 518 0 563 0 l 219 0 q 122 35 157 0 q 86 133 86 70 l 86 822 q 115 906 86 872 q 193 940 143 940 q 271 906 242 940 q 299 822 299 872 l 299 190 z "},"M":{"ha":1172,"x_min":50,"x_max":1142,"o":"m 333 547 l 261 87 q 220 14 252 40 q 138 -13 188 -13 q 72 23 94 -13 q 50 121 50 59 l 164 818 q 205 904 174 876 q 300 939 247 939 q 387 916 349 939 q 439 849 425 893 l 594 372 l 738 829 q 790 908 753 876 q 875 939 827 939 q 968 909 927 939 q 1018 829 1010 879 l 1142 124 q 1056 -13 1142 -13 q 954 25 981 -13 q 926 111 934 53 l 854 547 l 724 113 q 699 43 710 67 q 664 2 687 18 q 600 -14 641 -14 q 524 12 551 -14 q 480 87 496 37 l 333 547 z "},"N":{"ha":987,"x_min":86,"x_max":901,"o":"m 299 561 l 299 104 q 271 20 299 54 q 193 -14 243 -14 q 115 20 144 -14 q 86 104 86 54 l 86 830 q 115 909 86 877 q 190 940 144 940 q 279 893 243 940 l 689 378 l 689 822 q 718 906 689 872 q 796 940 746 940 q 873 906 845 940 q 901 822 901 872 l 901 108 q 873 18 901 49 q 803 -14 842 -14 q 718 26 748 -14 l 299 561 z "},"O":{"ha":1004,"x_min":44,"x_max":960,"o":"m 44 469 q 82 672 44 576 q 196 835 120 767 q 502 949 322 949 q 689 913 605 949 q 834 811 774 877 q 927 658 895 746 q 960 469 960 571 q 922 257 960 357 q 807 87 885 157 q 668 4 746 32 q 503 -24 590 -24 q 321 11 407 -24 q 171 113 234 45 q 44 469 44 246 m 271 468 q 296 323 271 393 q 372 210 320 254 q 503 167 425 167 q 634 210 583 167 q 710 321 686 252 q 733 468 733 389 q 708 610 733 544 q 631 718 683 677 q 500 758 578 758 q 413 738 455 758 q 340 685 370 718 q 271 468 271 606 z "},"P":{"ha":808,"x_min":90,"x_max":769,"o":"m 303 304 l 303 104 q 275 20 303 54 q 197 -14 247 -14 q 119 20 148 -14 q 90 104 90 54 l 90 797 q 124 892 90 858 q 219 926 158 926 l 436 926 q 672 849 593 926 q 724 784 701 821 q 758 705 746 746 q 769 622 769 664 q 699 403 769 487 q 464 304 617 304 l 303 304 m 303 489 l 411 489 q 517 526 479 489 q 551 621 551 561 q 513 708 548 676 q 422 740 477 740 l 303 740 l 303 489 z "},"Q":{"ha":1054,"x_min":43,"x_max":990,"o":"m 733 31 q 508 -24 622 -24 q 338 6 421 -24 q 193 93 255 36 q 43 483 43 230 q 59 607 43 546 q 106 724 75 669 q 182 824 137 779 q 329 917 245 885 q 506 949 414 949 q 679 916 595 949 q 825 821 763 883 q 925 666 889 756 q 961 482 961 576 q 954 366 961 418 q 928 264 946 314 q 877 162 909 214 l 949 101 q 990 3 990 67 q 956 -55 984 -31 q 895 -79 928 -79 q 875 -76 889 -79 q 822 -46 851 -70 l 733 31 m 569 179 l 533 213 q 506 283 506 238 q 536 345 509 318 q 597 372 563 372 q 674 337 634 372 l 704 310 q 735 485 735 381 q 707 618 735 554 q 627 721 680 682 q 504 760 575 760 q 378 721 431 760 q 297 619 325 682 q 270 483 270 555 q 321 265 270 346 q 507 167 384 167 q 569 179 540 167 z "},"R":{"ha":832,"x_min":86,"x_max":768,"o":"m 299 376 l 299 104 q 271 20 299 54 q 193 -14 243 -14 q 115 20 144 -14 q 86 104 86 54 l 86 797 q 120 891 86 858 q 215 925 154 925 l 429 925 q 659 853 571 925 q 729 761 704 815 q 754 647 754 706 q 682 451 754 522 q 536 383 634 406 l 717 185 q 765 110 758 140 q 768 86 768 93 q 742 17 768 48 q 681 -14 716 -14 q 574 32 608 -14 l 299 376 m 299 525 l 431 525 q 513 554 480 525 q 546 631 546 583 q 510 709 546 677 q 426 740 474 740 l 299 740 l 299 525 z "},"S":{"ha":783,"x_min":57,"x_max":725,"o":"m 64 653 q 111 809 64 742 q 235 913 157 877 q 400 949 313 949 q 512 937 453 949 q 616 897 572 926 q 660 818 660 868 q 632 744 660 775 q 563 714 605 714 q 531 718 544 714 l 492 732 q 396 750 441 750 q 323 730 356 750 q 290 674 290 710 q 376 594 290 617 l 433 579 q 646 481 568 543 q 725 301 725 419 q 646 75 725 158 q 528 0 599 24 q 379 -24 457 -24 q 136 25 237 -24 q 79 71 100 42 q 57 138 57 100 q 84 204 57 174 q 149 233 112 233 q 203 223 180 233 l 276 196 q 380 175 330 175 q 461 201 426 175 q 497 271 497 226 q 463 339 497 316 q 407 366 434 357 q 314 394 380 375 q 177 446 229 419 q 95 523 126 473 q 64 653 64 573 z "},"T":{"ha":715,"x_min":21,"x_max":694,"o":"m 467 736 l 467 104 q 438 20 467 54 q 360 -14 410 -14 q 282 20 311 -14 q 253 104 253 54 l 253 736 l 126 736 q 51 761 82 736 q 21 830 21 787 q 51 901 21 875 q 126 926 81 926 l 589 926 q 664 901 634 926 q 694 830 694 876 q 664 762 694 787 q 589 736 633 736 l 467 736 z "},"U":{"ha":958,"x_min":76,"x_max":882,"o":"m 882 821 l 882 406 q 867 252 882 315 q 807 131 852 189 q 662 17 749 57 q 480 -24 575 -24 q 326 4 400 -24 q 196 81 253 31 q 108 200 140 131 q 76 351 76 270 l 76 821 q 105 905 76 871 q 183 939 134 939 q 261 905 233 939 q 289 821 289 871 l 289 382 q 333 239 289 293 q 399 192 359 209 q 479 175 439 175 q 563 194 522 175 q 629 247 604 213 q 669 406 669 300 l 669 821 q 698 905 669 871 q 775 939 726 939 q 853 905 824 939 q 882 821 882 871 z "},"V":{"ha":871,"x_min":38,"x_max":838,"o":"m 437 356 l 626 860 q 665 917 639 893 q 721 940 690 940 q 777 929 750 940 q 820 897 803 918 q 838 849 838 876 q 826 782 838 814 l 543 68 q 442 -18 511 -18 q 378 1 406 -18 q 337 54 350 21 l 48 782 q 38 849 38 818 q 73 915 38 890 q 154 940 109 940 q 211 916 184 940 q 249 860 237 892 l 437 356 z "},"W":{"ha":1244,"x_min":29,"x_max":1224,"o":"m 625 540 l 494 114 q 438 18 475 50 q 337 -14 401 -14 q 258 13 295 -14 q 211 81 222 40 l 35 803 q 29 839 29 825 q 33 868 29 853 q 65 917 40 895 q 115 940 90 940 q 208 910 182 940 q 242 829 227 887 l 354 340 l 512 844 q 625 940 543 940 q 739 844 709 940 l 899 340 l 1008 826 q 1042 908 1022 884 q 1136 940 1068 940 q 1187 917 1162 940 q 1219 867 1213 894 q 1224 838 1224 851 q 1218 801 1224 825 l 1052 103 q 1003 19 1040 51 q 912 -14 965 -14 q 767 103 804 -14 l 625 540 z "},"X":{"ha":890,"x_min":57,"x_max":853,"o":"m 576 496 l 825 167 q 853 104 853 127 q 829 22 853 57 q 765 -14 806 -14 q 639 58 692 -14 l 453 315 l 271 60 q 146 -14 222 -14 q 82 22 106 -14 q 57 104 57 59 q 85 165 57 129 l 332 496 l 142 746 q 101 829 101 803 q 128 906 101 873 q 194 939 155 939 q 297 886 259 939 l 453 674 l 600 883 q 710 939 638 939 q 776 906 751 939 q 801 826 801 872 q 760 740 801 798 l 576 496 z "},"Y":{"ha":842,"x_min":54,"x_max":803,"o":"m 531 437 l 531 104 q 502 20 531 54 q 424 -14 474 -14 q 347 20 375 -14 q 318 104 318 54 l 318 437 l 95 743 q 77 767 89 751 q 60 796 66 783 q 54 824 54 809 q 82 903 54 868 q 150 939 110 939 q 254 883 216 939 l 424 639 l 603 886 q 708 940 640 940 q 776 907 749 940 q 803 828 803 873 q 761 742 803 796 l 531 437 z "},"Z":{"ha":767,"x_min":24,"x_max":749,"o":"m 297 190 l 643 190 q 718 165 688 190 q 749 95 749 140 q 718 26 749 51 q 643 0 687 0 l 158 0 q 99 8 122 0 q 52 39 75 16 q 24 113 24 66 q 52 182 24 143 l 467 736 l 146 736 q 71 761 101 736 q 40 830 40 787 q 71 900 40 874 q 146 926 101 926 l 607 926 q 697 897 665 926 q 732 826 732 867 q 701 736 732 781 l 297 190 z "},"[":{"ha":460,"x_min":72,"x_max":428,"o":"m 247 763 l 247 -21 l 336 -21 q 402 -43 376 -21 q 428 -103 428 -64 q 401 -162 428 -140 q 336 -185 374 -185 l 196 -185 q 106 -155 139 -185 q 72 -70 72 -125 l 72 811 q 105 897 72 867 q 196 926 139 926 l 336 926 q 402 905 376 926 q 428 844 428 883 q 415 801 428 819 q 382 772 403 782 q 336 763 361 763 l 247 763 z "},"\\":{"ha":663,"x_min":52,"x_max":598,"o":"m 463 -125 l 58 850 q 52 893 52 867 q 74 934 52 918 q 125 950 96 950 q 180 900 161 950 l 583 -75 q 598 -135 598 -114 q 578 -175 596 -160 q 532 -190 559 -190 q 463 -125 488 -190 z "},"]":{"ha":460,"x_min":32,"x_max":388,"o":"m 213 763 l 131 763 q 61 784 91 763 q 32 844 32 805 q 58 905 32 883 q 124 926 84 926 l 264 926 q 329 913 300 926 q 372 874 357 900 q 388 811 388 848 l 388 -70 q 358 -154 388 -123 q 272 -185 328 -185 l 131 -185 q 61 -163 91 -185 q 32 -103 32 -142 q 61 -42 32 -64 q 131 -21 91 -21 l 213 -21 l 213 763 z "},"^":{"ha":736,"x_min":39,"x_max":697,"o":"m 235 482 l 39 482 l 244 932 l 492 932 l 697 482 l 502 482 l 368 782 l 235 482 z "},"_":{"ha":736,"x_min":-14,"x_max":746,"o":"m -14 -75 l 746 -75 l 746 -207 l -14 -207 l -14 -75 z "},"‘":{"ha":382,"x_min":44,"x_max":329,"o":"m 210 906 l 318 711 q 329 668 329 693 q 301 609 329 634 q 239 585 273 585 q 168 626 190 585 l 56 821 q 44 860 44 841 q 71 923 44 897 q 135 950 98 950 q 210 906 185 950 z "},"a":{"ha":820,"x_min":43,"x_max":739,"o":"m 535 71 q 459 6 498 26 q 364 -14 420 -14 q 164 64 253 -14 q 43 353 43 171 q 150 625 43 520 q 360 718 243 718 q 455 699 416 718 q 536 637 494 680 q 635 712 567 712 q 709 682 679 712 q 739 608 739 652 l 739 111 q 710 26 739 61 q 633 -10 682 -10 q 535 71 563 -10 m 247 356 q 281 230 247 284 q 382 176 315 176 q 461 200 427 176 q 512 263 494 224 q 529 346 529 302 q 493 476 529 425 q 382 528 457 528 q 283 475 319 528 q 247 356 247 421 z "},"b":{"ha":810,"x_min":81,"x_max":765,"o":"m 285 659 q 445 718 366 718 q 571 689 512 718 q 673 610 629 661 q 741 497 717 560 q 765 367 765 433 q 659 74 765 180 q 451 -14 573 -14 q 282 67 343 -14 q 188 -10 250 -10 q 110 21 140 -10 q 81 99 81 52 l 81 906 q 93 962 81 936 q 128 1003 104 988 q 182 1018 151 1018 q 257 986 230 1018 q 285 906 285 954 l 285 659 m 283 351 q 322 230 283 283 q 425 176 360 176 q 499 202 468 176 q 547 269 531 228 q 563 351 563 310 q 526 473 563 418 q 425 528 489 528 q 348 502 380 528 q 300 436 316 476 q 283 351 283 395 z "},"c":{"ha":676,"x_min":43,"x_max":626,"o":"m 43 357 q 70 504 43 434 q 150 624 96 574 q 260 693 197 668 q 386 718 322 718 q 548 689 471 718 q 625 589 625 659 q 602 521 625 550 q 540 492 579 492 q 471 512 516 493 q 393 528 426 528 q 293 483 337 528 q 247 351 247 434 q 266 262 247 301 q 320 199 284 222 q 407 176 357 176 q 483 196 442 176 q 539 213 520 213 q 601 189 576 213 q 626 131 626 166 q 587 48 626 81 q 493 1 547 16 q 393 -14 439 -14 q 136 92 234 -14 q 43 357 43 193 z "},"d":{"ha":811,"x_min":44,"x_max":730,"o":"m 526 653 l 526 906 q 554 986 526 954 q 629 1018 581 1018 q 703 986 676 1018 q 730 906 730 954 l 730 107 q 704 24 730 58 q 631 -10 679 -10 q 567 10 591 -10 q 529 71 544 30 q 452 6 496 26 q 350 -14 409 -14 q 222 21 282 -14 q 121 114 162 56 q 44 371 44 225 q 79 519 44 444 q 170 643 114 594 q 367 718 255 718 q 526 653 447 718 m 249 361 q 287 239 249 293 q 390 186 325 186 q 465 212 433 186 q 512 279 496 238 q 528 362 528 320 q 512 445 528 404 q 465 512 496 486 q 390 537 433 537 q 313 512 346 537 q 265 446 281 487 q 249 361 249 406 z "},"e":{"ha":777,"x_min":44,"x_max":732,"o":"m 264 285 q 325 196 285 223 q 421 164 368 164 q 536 192 480 164 l 594 221 q 633 231 609 228 q 676 219 655 231 q 709 188 696 208 q 721 147 721 168 q 639 43 721 90 q 410 -14 539 -14 q 249 19 325 -14 q 121 117 174 53 q 44 356 44 209 q 91 537 44 453 q 218 669 137 620 q 396 718 299 718 q 566 672 489 718 q 688 547 644 626 q 732 378 732 469 q 712 307 732 329 q 645 285 692 285 l 264 285 m 532 424 q 393 551 499 551 q 257 424 299 551 l 532 424 z "},"f":{"ha":537,"x_min":21,"x_max":517,"o":"m 357 512 l 357 104 q 330 23 357 55 q 256 -10 303 -10 q 181 23 209 -10 q 153 104 153 56 l 153 512 l 124 512 q 50 537 80 512 q 21 606 21 562 q 50 673 21 648 q 124 697 80 697 l 153 697 l 153 799 q 221 958 153 898 q 365 1013 281 1013 q 493 921 493 1013 q 472 858 493 883 q 414 830 451 833 q 370 817 384 828 q 357 775 357 805 l 357 697 l 414 697 q 487 673 458 697 q 517 606 517 649 q 487 537 517 563 q 414 512 457 512 l 357 512 z "},"g":{"ha":806,"x_min":44,"x_max":725,"o":"m 528 637 q 626 714 570 714 q 699 682 672 714 q 725 603 725 650 l 725 64 q 700 -84 725 -18 q 629 -196 676 -150 q 516 -266 582 -242 q 368 -290 449 -290 q 119 -232 224 -290 q 57 -140 57 -198 q 82 -80 57 -106 q 142 -52 107 -54 q 183 -57 165 -52 l 240 -76 q 364 -100 307 -100 q 506 -33 469 -100 q 528 79 522 -2 q 453 9 491 32 q 358 -14 414 -14 q 235 12 295 -14 q 133 86 176 39 q 44 361 44 184 q 74 510 44 438 q 157 633 103 582 q 248 695 196 672 q 353 718 300 718 q 448 699 409 718 q 528 637 488 680 m 249 360 q 289 222 249 268 q 386 176 328 176 q 487 230 451 176 q 524 353 524 284 q 507 437 524 397 q 457 502 490 477 q 378 528 424 528 q 283 476 317 528 q 249 360 249 424 z "},"h":{"ha":801,"x_min":81,"x_max":721,"o":"m 285 659 q 468 717 382 717 q 651 650 581 717 q 721 458 721 584 l 721 104 q 694 23 721 55 q 618 -10 666 -10 q 544 23 572 -10 q 517 104 517 56 l 517 401 q 488 502 517 463 q 400 542 460 542 q 318 504 351 542 q 285 415 285 466 l 285 104 q 258 23 285 55 q 182 -10 230 -10 q 108 23 136 -10 q 81 104 81 56 l 81 906 q 93 962 81 936 q 128 1003 104 988 q 182 1018 151 1018 q 257 986 230 1018 q 285 906 285 954 l 285 659 z "},"i":{"ha":397,"x_min":81,"x_max":317,"o":"m 81 899 q 115 982 81 947 q 199 1018 150 1018 q 258 1002 231 1018 q 301 958 285 985 q 317 899 317 930 q 282 815 317 850 q 199 779 247 779 q 115 815 150 779 q 81 899 81 850 m 95 104 l 95 600 q 122 680 95 648 q 196 712 149 712 q 271 680 243 712 q 299 600 299 648 l 299 104 q 271 23 299 55 q 196 -10 244 -10 q 122 23 150 -10 q 95 104 95 56 z "},"j":{"ha":399,"x_min":82,"x_max":318,"o":"m 82 899 q 117 982 82 947 q 200 1018 152 1018 q 259 1002 232 1018 q 302 958 286 985 q 318 899 318 930 q 283 815 318 850 q 200 779 249 779 q 117 815 152 779 q 82 899 82 850 m 103 -174 l 103 600 q 130 680 103 648 q 205 712 157 712 q 280 680 253 712 q 307 600 307 648 l 307 -174 q 280 -255 307 -223 q 205 -288 253 -288 q 131 -254 158 -288 q 103 -174 103 -221 z "},"k":{"ha":747,"x_min":81,"x_max":703,"o":"m 285 335 l 285 104 q 258 23 285 56 q 182 -10 230 -10 q 108 23 136 -10 q 81 104 81 56 l 81 906 q 93 962 81 936 q 128 1003 104 988 q 182 1018 151 1018 q 257 986 230 1018 q 285 906 285 954 l 285 472 l 488 681 q 581 714 519 714 q 630 692 606 714 q 661 643 654 670 q 664 620 664 627 q 626 540 664 573 l 482 403 l 661 180 q 703 97 703 125 q 678 22 703 54 q 614 -10 653 -10 q 515 38 550 -10 l 285 335 z "},"l":{"ha":365,"x_min":81,"x_max":285,"o":"m 285 906 l 285 104 q 258 23 285 55 q 182 -10 230 -10 q 108 23 136 -10 q 81 104 81 56 l 81 906 q 93 962 81 936 q 128 1003 104 988 q 182 1018 151 1018 q 257 986 230 1018 q 285 906 285 954 z "},"m":{"ha":1197,"x_min":81,"x_max":1115,"o":"m 280 646 q 463 717 358 717 q 598 683 542 717 q 655 628 629 666 q 761 694 709 672 q 873 717 812 717 q 995 686 939 717 q 1083 602 1050 656 q 1115 482 1115 548 l 1115 104 q 1089 22 1115 55 q 1014 -10 1062 -10 q 959 6 982 -10 q 924 47 936 21 q 912 104 912 73 l 912 436 q 882 513 912 484 q 804 542 852 542 q 730 511 759 542 q 700 436 700 480 l 700 104 q 673 23 700 55 q 598 -10 646 -10 q 524 23 551 -10 q 496 104 496 56 l 496 415 q 470 506 496 471 q 390 542 444 542 q 316 511 346 542 q 285 436 285 481 l 285 104 q 258 23 285 55 q 182 -10 230 -10 q 108 23 136 -10 q 81 104 81 56 l 81 596 q 106 676 81 642 q 175 712 131 710 q 280 646 234 712 z "},"n":{"ha":799,"x_min":81,"x_max":718,"o":"m 279 642 q 365 699 322 682 q 465 717 407 717 q 645 655 573 717 q 703 572 687 618 q 718 460 718 526 l 718 104 q 691 23 718 55 q 615 -10 664 -10 q 542 23 569 -10 q 514 104 514 56 l 514 413 q 483 505 514 468 q 397 542 452 542 q 340 525 366 542 q 299 480 314 508 q 285 421 285 452 l 285 104 q 258 23 285 55 q 182 -10 230 -10 q 108 23 136 -10 q 81 104 81 56 l 81 593 q 106 676 81 642 q 179 712 132 710 q 279 642 250 712 z "},"o":{"ha":772,"x_min":44,"x_max":726,"o":"m 44 351 q 67 490 44 424 q 136 607 90 557 q 250 689 184 659 q 386 718 316 718 q 522 689 455 718 q 636 607 589 659 q 704 491 682 556 q 726 351 726 425 q 704 214 726 279 q 636 97 682 149 q 523 16 589 45 q 388 -14 457 -14 q 250 16 317 -14 q 136 97 183 45 q 44 351 44 195 m 246 351 q 262 269 246 310 q 308 202 277 229 q 382 176 339 176 q 459 202 426 176 q 509 269 492 228 q 526 351 526 309 q 509 435 526 394 q 459 502 492 476 q 382 528 426 528 q 282 473 318 528 q 246 351 246 418 z "},"p":{"ha":806,"x_min":81,"x_max":761,"o":"m 278 635 q 446 717 351 717 q 650 639 568 717 q 732 514 704 587 q 761 367 761 442 q 725 181 761 268 q 616 40 688 94 q 445 -14 544 -14 q 285 46 362 -14 l 285 -174 q 258 -255 285 -222 q 182 -288 230 -288 q 108 -254 136 -288 q 81 -174 81 -221 l 81 592 q 105 677 81 643 q 178 712 129 712 q 239 693 216 712 q 278 635 261 673 m 278 351 q 294 266 278 307 q 344 200 311 225 q 424 175 377 175 q 495 202 465 175 q 541 269 526 228 q 557 351 557 310 q 541 434 557 392 q 495 501 526 475 q 424 528 465 528 q 344 502 377 528 q 294 437 311 477 q 278 351 278 396 z "},"q":{"ha":807,"x_min":44,"x_max":726,"o":"m 526 642 q 622 712 569 712 q 696 684 667 712 q 726 610 726 655 l 726 -174 q 700 -255 726 -223 q 625 -288 673 -288 q 570 -272 593 -288 q 535 -231 547 -257 q 524 -174 524 -204 l 524 47 q 353 -14 444 -14 q 242 13 301 -14 q 144 79 184 40 q 44 358 44 181 q 66 485 44 421 q 129 602 89 549 q 227 686 170 654 q 349 717 283 717 q 526 642 451 717 m 249 351 q 265 268 249 308 q 313 201 281 227 q 388 175 345 175 q 465 201 432 175 q 513 267 497 227 q 529 351 529 308 q 513 436 529 395 q 465 502 497 476 q 388 528 432 528 q 313 502 345 528 q 265 435 281 476 q 249 351 249 395 z "},"r":{"ha":549,"x_min":81,"x_max":529,"o":"m 285 640 q 422 717 358 717 q 498 689 466 717 q 529 618 529 661 q 504 554 529 574 q 425 518 478 535 q 317 467 350 493 q 285 383 285 441 l 285 104 q 258 23 285 55 q 182 -10 230 -10 q 108 23 136 -10 q 81 104 81 56 l 81 596 q 105 678 81 651 q 179 712 136 712 q 285 640 251 712 z "},"s":{"ha":646,"x_min":57,"x_max":588,"o":"m 78 490 q 138 637 78 577 q 333 718 214 718 q 514 668 441 718 q 572 579 572 627 q 548 517 572 545 q 488 489 523 489 q 407 517 468 491 q 323 537 356 537 q 275 504 277 534 q 293 471 275 485 q 339 446 312 457 q 382 429 366 435 q 537 342 494 387 q 588 219 588 287 q 568 125 588 170 q 511 47 548 79 q 323 -14 440 -14 q 211 2 274 -14 q 103 51 149 17 q 57 136 57 84 q 82 196 57 168 q 140 225 108 225 q 168 222 153 225 q 193 214 182 218 q 220 202 205 209 q 247 189 235 195 q 328 167 297 167 q 369 179 350 167 q 389 211 389 191 q 370 247 389 236 q 310 274 350 258 l 254 294 q 124 371 170 327 q 78 490 78 414 z "},"t":{"ha":533,"x_min":21,"x_max":512,"o":"m 351 518 l 351 104 q 324 23 351 55 q 250 -10 297 -10 q 175 23 203 -10 q 147 104 147 56 l 147 518 q 44 549 71 518 q 21 611 21 574 q 34 657 21 634 q 67 690 46 681 q 147 703 92 703 l 147 830 q 175 912 147 879 q 250 944 202 944 q 324 912 297 944 q 351 830 351 879 l 351 703 l 410 703 q 483 679 453 703 q 512 611 512 654 q 483 543 512 568 q 410 518 453 518 l 351 518 z "},"u":{"ha":794,"x_min":81,"x_max":714,"o":"m 714 600 l 714 275 q 664 107 714 168 q 547 17 618 48 q 397 -14 475 -14 q 248 17 320 -14 q 131 107 176 49 q 81 275 81 172 l 81 600 q 108 680 81 648 q 182 712 135 712 q 257 680 230 712 q 285 600 285 648 l 285 300 q 317 213 285 242 q 397 179 350 179 q 478 213 442 179 q 510 300 510 242 l 510 600 q 537 680 510 648 q 612 712 564 712 q 687 680 660 712 q 714 600 714 648 z "},"v":{"ha":724,"x_min":44,"x_max":681,"o":"m 361 303 l 471 631 q 508 689 483 665 q 564 712 533 712 q 645 689 610 712 q 681 625 681 666 q 661 536 681 588 l 486 103 q 438 18 465 47 q 361 -10 412 -10 q 243 87 280 -10 l 54 560 q 44 625 44 587 q 80 689 44 666 q 161 712 115 712 q 215 689 191 712 q 250 632 239 665 l 361 303 z "},"w":{"ha":1076,"x_min":38,"x_max":1046,"o":"m 746 307 l 842 631 q 874 688 851 664 q 928 712 898 712 q 1010 692 975 712 q 1046 632 1046 672 q 1038 567 1046 598 l 886 135 q 833 30 863 69 q 746 -10 802 -10 q 628 99 665 -10 l 540 354 l 469 135 q 418 29 449 67 q 328 -10 388 -10 q 255 21 286 -10 q 210 99 225 53 l 46 569 q 38 633 38 599 q 73 692 38 672 q 154 712 109 712 q 207 688 183 712 q 239 632 230 664 l 336 306 l 436 621 q 536 712 465 712 q 645 621 615 712 l 746 307 z "},"x":{"ha":768,"x_min":64,"x_max":739,"o":"m 526 370 l 704 171 q 736 114 728 145 q 739 90 739 105 q 714 22 739 53 q 654 -8 689 -8 q 535 54 584 -8 l 404 213 l 272 54 q 150 -8 221 -8 q 90 23 115 -8 q 64 95 64 55 q 67 118 64 110 q 101 175 76 148 l 282 370 l 133 531 q 100 589 106 563 q 97 612 97 597 q 123 683 97 651 q 185 714 149 714 q 292 667 256 714 l 404 524 l 519 664 q 628 710 557 710 q 670 695 650 710 q 702 657 690 681 q 714 608 714 633 q 710 582 714 595 q 675 525 701 553 l 526 370 z "},"y":{"ha":732,"x_min":36,"x_max":697,"o":"m 365 317 l 485 617 q 524 688 503 662 q 579 714 545 714 q 634 703 606 714 q 680 671 662 692 q 697 624 697 650 q 686 560 697 588 l 357 -223 q 271 -296 328 -296 q 194 -271 229 -296 q 157 -207 160 -247 q 170 -144 157 -178 l 258 64 l 48 561 q 36 625 36 593 q 72 689 36 665 q 153 714 109 714 q 208 688 188 714 q 246 618 229 662 l 365 317 z "},"z":{"ha":665,"x_min":22,"x_max":645,"o":"m 321 185 l 542 185 q 615 160 586 185 q 645 93 645 136 q 615 25 645 50 q 542 0 585 0 l 128 0 q 47 19 70 0 q 22 70 22 40 q 46 131 22 97 l 331 519 l 126 519 q 53 544 83 519 q 24 612 24 569 q 53 680 24 655 q 126 704 83 704 l 540 704 q 598 685 572 704 q 624 635 624 665 q 596 560 624 599 l 321 185 z "},"{":{"ha":736,"x_min":115,"x_max":610,"o":"m 498 -267 q 465 -267 484 -267 q 436 -268 447 -268 q 264 -213 313 -268 q 223 -65 223 -165 l 223 128 q 210 210 223 181 q 146 253 196 238 q 124 283 132 257 q 115 345 115 310 q 147 429 115 421 q 208 468 192 441 q 223 543 223 495 l 223 743 q 272 893 223 849 q 498 942 325 942 l 517 942 q 562 927 541 942 q 596 887 583 911 q 608 836 608 862 q 582 759 608 788 q 517 730 555 730 q 468 715 483 730 q 443 626 443 692 l 443 504 q 427 403 443 439 q 362 335 411 367 q 427 267 410 306 q 443 165 443 228 l 443 15 q 457 -30 443 -10 q 500 -54 471 -51 l 518 -54 q 563 -70 542 -55 q 597 -110 585 -85 q 610 -160 610 -134 q 582 -231 610 -198 q 518 -267 554 -263 l 498 -267 z "},"|":{"ha":736,"x_min":257,"x_max":480,"o":"m 257 925 l 480 925 l 480 -232 l 257 -232 l 257 925 z "},"}":{"ha":736,"x_min":126,"x_max":621,"o":"m 512 -65 q 472 -213 512 -166 q 300 -268 423 -268 q 271 -267 289 -268 q 237 -267 253 -267 l 218 -267 q 154 -231 182 -263 q 126 -160 126 -198 q 139 -110 126 -134 q 173 -70 151 -85 q 218 -54 194 -55 l 236 -54 q 279 -30 266 -51 q 293 15 293 -10 l 293 165 q 309 267 293 228 q 374 335 326 306 q 323 379 341 355 q 299 432 306 404 q 293 504 293 461 l 293 626 q 268 715 293 692 q 243 728 258 725 q 219 730 228 730 q 155 759 181 730 q 128 836 128 788 q 155 909 128 876 q 219 942 183 942 l 237 942 q 464 893 411 942 q 512 743 512 849 l 512 543 q 528 468 512 495 q 589 429 544 441 q 621 345 621 421 q 613 283 621 310 q 590 253 604 257 q 538 225 555 242 q 517 186 522 208 q 512 128 512 164 l 512 -65 z "},"~":{"ha":736,"x_min":54,"x_max":686,"o":"m 54 486 q 78 569 54 532 q 142 626 102 606 q 228 647 182 647 q 365 617 304 647 l 431 583 q 486 567 462 567 q 518 576 507 567 q 542 606 529 585 q 606 649 563 649 q 662 627 639 649 q 686 574 686 606 q 659 486 686 524 q 588 426 632 447 q 497 404 544 404 q 365 443 443 404 q 254 486 287 483 q 205 458 221 486 l 188 429 q 132 403 170 403 q 76 427 97 403 q 54 486 54 451 z "},"¡":{"ha":399,"x_min":86,"x_max":313,"o":"m 86 835 q 120 915 86 882 q 200 949 153 949 q 279 915 246 949 q 313 835 313 881 q 279 756 313 789 q 200 722 245 722 q 120 756 154 722 q 86 835 86 789 m 310 537 l 310 90 q 283 8 310 41 q 208 -24 256 -24 q 154 -8 177 -24 q 119 33 131 7 q 107 90 107 59 l 107 537 q 134 618 107 585 q 208 650 160 650 q 282 618 255 650 q 310 537 310 586 z "},"¢":{"ha":782,"x_min":95,"x_max":688,"o":"m 514 825 q 688 703 688 789 q 664 630 688 662 q 602 598 640 598 q 563 607 588 598 q 525 621 538 615 q 450 633 479 633 q 342 581 382 633 q 301 458 301 528 q 344 336 301 387 q 457 285 387 285 q 533 300 479 285 q 564 313 544 305 q 603 321 584 321 q 660 294 635 321 q 685 235 685 268 q 659 165 685 192 q 600 124 633 137 q 514 97 566 111 l 514 33 q 495 -22 514 0 q 445 -44 476 -44 q 394 -22 413 -44 q 375 33 375 1 l 375 97 q 169 221 244 123 q 95 455 95 320 q 110 571 95 515 q 155 677 125 628 q 231 761 186 726 q 375 825 283 803 l 375 882 q 394 937 375 915 q 445 960 412 960 q 495 937 476 960 q 514 882 514 915 l 514 825 z "},"£":{"ha":968,"x_min":75,"x_max":890,"o":"m 436 196 l 782 196 q 859 170 828 196 q 890 99 890 144 q 876 46 890 68 q 837 12 862 23 q 782 0 811 0 l 282 0 q 162 107 162 0 q 194 183 162 146 q 247 269 232 231 q 270 370 261 307 l 185 370 q 105 396 136 370 q 75 468 75 421 q 105 542 75 515 q 185 568 135 568 l 227 568 q 201 689 201 638 q 253 830 201 771 q 384 919 304 889 q 542 949 463 949 q 787 882 688 949 q 886 729 882 818 q 854 650 886 682 q 777 617 822 617 q 723 634 745 617 q 679 685 702 652 q 623 742 654 724 q 545 760 591 760 q 468 731 502 760 q 435 660 435 702 q 465 568 435 626 l 565 568 q 645 542 613 568 q 676 468 676 515 q 644 397 676 424 q 565 370 611 370 l 490 370 q 436 196 490 299 z "},"⁄":{"ha":472,"x_min":-1,"x_max":467,"o":"m 11 86 l 336 901 q 390 949 356 949 q 441 934 418 949 q 467 893 464 919 q 460 853 467 868 l 128 24 q 74 -25 109 -25 q 24 -9 46 -25 q -1 32 1 6 q 11 86 -1 55 z "},"¥":{"ha":938,"x_min":22,"x_max":915,"o":"m 353 0 l 353 310 l 72 310 l 72 396 l 325 396 l 244 533 l 50 533 l 50 617 l 199 617 l 22 922 l 265 922 l 467 532 l 668 926 l 915 926 l 736 617 l 885 617 l 885 533 l 689 533 l 608 396 l 867 396 l 867 310 l 581 310 l 581 0 l 353 0 z "},"ƒ":{"ha":782,"x_min":35,"x_max":747,"o":"m 310 606 l 280 606 q 208 631 237 606 q 178 699 178 656 q 208 767 178 742 q 280 792 237 792 l 343 792 l 360 892 q 405 1003 370 955 q 494 1079 440 1052 q 610 1105 547 1105 q 747 1014 747 1105 q 721 947 747 972 q 647 922 694 922 l 626 924 q 560 869 568 924 l 546 792 l 603 792 q 676 767 647 792 q 706 699 706 742 q 676 631 706 656 q 603 606 646 606 l 514 606 l 417 52 q 370 -65 406 -11 q 280 -152 335 -119 q 162 -185 226 -185 q 35 -93 35 -185 q 55 -30 35 -56 q 113 -1 76 -4 l 133 0 q 215 71 204 6 l 310 606 z "},"§":{"ha":738,"x_min":44,"x_max":693,"o":"m 589 194 q 653 48 653 135 q 626 -49 653 -5 q 557 -123 600 -93 q 460 -169 513 -153 q 357 -185 408 -185 q 161 -131 242 -185 q 82 1 82 -76 q 104 56 82 33 q 157 81 126 79 q 218 58 197 81 l 244 31 q 354 -17 290 -17 q 421 0 390 -17 q 451 50 451 16 q 428 92 449 79 q 365 122 407 105 l 278 160 q 158 218 207 189 q 77 292 109 246 q 44 404 44 338 q 146 597 44 506 q 105 724 105 654 q 148 845 105 794 q 256 923 190 897 q 392 950 322 950 q 511 930 447 950 q 618 868 575 909 q 661 771 661 827 q 637 709 661 736 q 581 682 614 682 q 519 711 542 682 l 498 738 q 393 786 464 786 q 335 773 362 786 q 308 733 308 761 q 327 692 308 705 q 393 657 346 679 l 449 633 q 563 583 528 600 q 631 535 598 566 q 693 392 693 476 q 589 194 693 291 m 270 498 q 233 439 233 470 q 253 396 233 411 q 314 361 273 380 q 406 317 349 345 q 468 288 464 290 q 503 351 503 326 q 490 387 503 371 q 458 412 477 402 q 416 432 439 423 q 379 446 393 440 q 270 498 321 470 z "},"€":{"ha":1038,"x_min":76,"x_max":961,"o":"m 76 150 l 217 290 q 167 474 167 377 q 221 655 167 555 l 76 799 l 192 914 l 337 767 q 525 820 439 820 q 697 768 596 820 l 843 912 l 956 799 l 815 657 q 871 472 871 565 q 821 292 871 389 l 961 150 l 849 36 l 708 176 q 517 119 616 119 q 331 175 432 119 l 190 36 l 76 150 m 519 632 q 407 585 453 632 q 360 472 360 538 q 381 393 360 430 q 440 335 403 356 q 519 313 477 313 q 599 334 562 313 q 656 393 635 356 q 678 472 678 430 q 631 585 678 538 q 519 632 585 632 z "},"'":{"ha":471,"x_min":87,"x_max":388,"o":"m 105 633 l 264 907 q 329 949 289 949 q 369 932 351 948 q 388 892 388 917 q 368 849 383 865 l 165 598 q 122 561 142 565 q 87 581 91 561 q 105 633 87 602 z "},"“":{"ha":679,"x_min":35,"x_max":615,"o":"m 200 906 l 308 711 q 319 668 319 693 q 291 609 319 634 q 229 585 263 585 q 158 626 180 585 l 46 821 q 35 860 35 842 q 62 923 35 897 q 125 950 89 950 q 200 906 176 950 m 496 906 l 606 711 q 615 668 615 691 q 588 609 615 634 q 526 585 560 585 q 454 626 478 585 l 342 821 q 331 860 332 841 q 358 924 331 897 q 422 950 385 950 q 496 906 471 950 z "},"«":{"ha":838,"x_min":97,"x_max":740,"o":"m 246 376 l 379 240 q 407 176 407 210 q 385 113 407 140 q 329 86 364 86 q 249 128 281 86 l 132 290 q 97 376 97 338 q 132 464 97 416 l 249 625 q 329 667 281 667 q 385 640 362 667 q 407 578 407 613 q 379 514 407 542 l 246 376 m 579 376 l 712 240 q 740 176 740 210 q 718 114 740 141 q 663 86 696 86 q 582 128 614 86 l 465 290 q 431 376 431 338 q 465 464 431 416 l 582 625 q 663 667 614 667 q 718 640 696 667 q 740 578 740 613 q 712 514 740 542 l 579 376 z "},"‹":{"ha":504,"x_min":97,"x_max":407,"o":"m 246 376 l 379 240 q 407 176 407 210 q 385 114 407 141 q 329 86 362 86 q 249 128 281 86 l 132 290 q 97 376 97 338 q 132 464 97 416 l 249 625 q 329 667 281 667 q 385 640 362 667 q 407 578 407 613 q 379 514 407 542 l 246 376 z "},"›":{"ha":504,"x_min":97,"x_max":407,"o":"m 258 376 l 125 514 q 97 578 97 541 q 120 640 97 612 q 175 667 142 667 q 256 625 225 667 l 372 464 q 407 376 407 419 q 372 290 407 335 l 256 128 q 175 86 225 86 q 120 114 142 86 q 97 176 97 142 q 125 240 97 210 l 258 376 z "},"ﬁ":{"ha":892,"x_min":21,"x_max":812,"o":"m 357 512 l 357 104 q 330 23 357 55 q 256 -10 303 -10 q 181 23 209 -10 q 153 104 153 56 l 153 512 l 124 512 q 50 537 79 512 q 21 606 21 561 q 124 697 21 697 l 153 697 l 153 799 q 221 958 153 898 q 365 1013 281 1013 q 493 921 493 1013 q 472 858 493 883 q 414 830 451 833 q 370 817 384 828 q 357 775 357 805 l 357 697 l 414 697 q 488 673 459 697 q 517 606 517 649 q 488 537 517 562 q 414 512 458 512 l 357 512 m 576 899 q 611 982 576 947 q 694 1018 646 1018 q 777 982 742 1018 q 812 899 812 947 q 777 815 812 851 q 694 779 742 779 q 611 815 646 779 q 576 899 576 850 m 590 104 l 590 600 q 617 680 590 648 q 692 712 645 712 q 767 680 739 712 q 794 600 794 648 l 794 104 q 767 23 794 55 q 692 -10 740 -10 q 637 5 660 -10 q 602 47 614 21 q 590 104 590 74 z "},"ﬂ":{"ha":861,"x_min":21,"x_max":779,"o":"m 357 512 l 357 104 q 330 23 357 55 q 256 -10 303 -10 q 180 21 208 -10 q 153 104 153 53 l 153 512 l 124 512 q 49 537 78 512 q 21 606 21 561 q 50 673 21 648 q 124 697 78 697 l 153 697 l 153 799 q 221 958 153 898 q 365 1013 281 1013 q 493 921 493 1013 q 472 858 493 883 q 414 830 451 833 q 370 817 384 828 q 357 775 357 805 l 357 697 l 414 697 q 517 606 517 697 q 488 537 517 562 q 414 512 460 512 l 357 512 m 779 906 l 779 104 q 753 22 779 53 q 678 -10 727 -10 q 604 24 631 -10 q 576 104 576 57 l 576 906 q 603 987 576 957 q 678 1018 630 1018 q 752 987 726 1018 q 779 906 779 956 z "},"–":{"ha":746,"x_min":68,"x_max":679,"o":"m 165 469 l 582 469 q 652 447 624 469 q 679 383 679 424 q 651 319 679 343 q 582 296 623 296 l 165 296 q 96 319 124 296 q 68 383 68 342 q 96 446 68 424 q 165 469 124 469 z "},"†":{"ha":782,"x_min":57,"x_max":724,"o":"m 483 476 l 483 -87 q 458 -161 483 -132 q 390 -190 434 -190 q 322 -161 348 -190 q 297 -87 297 -131 l 297 476 l 160 476 q 86 501 116 476 q 57 569 57 526 q 87 636 57 612 q 160 661 116 661 l 297 661 l 297 846 q 322 919 297 889 q 390 949 348 949 q 458 919 434 949 q 483 846 483 889 l 483 661 l 621 661 q 694 637 665 661 q 724 569 724 612 q 694 502 724 527 q 621 476 664 476 l 483 476 z "},"‡":{"ha":782,"x_min":57,"x_max":724,"o":"m 483 476 l 483 282 l 621 282 q 701 260 679 282 q 724 189 724 237 q 694 122 724 146 q 621 97 665 97 l 483 97 l 483 -87 q 458 -161 483 -132 q 390 -190 434 -190 q 322 -161 348 -190 q 297 -87 297 -131 l 297 97 l 160 97 q 86 122 115 97 q 57 189 57 146 q 86 257 57 232 q 160 282 116 282 l 297 282 l 297 476 l 160 476 q 86 501 114 476 q 57 569 57 525 q 87 636 57 612 q 160 661 116 661 l 297 661 l 297 846 q 322 919 297 890 q 390 949 347 949 q 459 920 434 949 q 483 846 483 891 l 483 661 l 621 661 q 694 637 665 661 q 724 569 724 612 q 695 501 724 526 q 621 476 666 476 l 483 476 z "},"·":{"ha":413,"x_min":93,"x_max":319,"o":"m 93 345 q 127 424 93 390 q 207 457 160 457 q 263 442 237 457 q 304 400 289 427 q 319 345 319 374 q 286 264 319 298 q 207 231 253 231 q 126 264 160 231 q 93 345 93 298 z "},"¶":{"ha":914,"x_min":97,"x_max":771,"o":"m 365 -110 l 365 445 l 346 445 q 219 474 277 445 q 130 558 162 504 q 97 683 97 613 q 127 805 97 749 q 213 890 157 862 q 411 926 279 926 l 718 926 q 757 914 743 926 q 771 885 771 902 q 757 856 771 868 q 718 844 744 844 l 699 844 l 699 -110 q 683 -144 699 -132 q 646 -156 667 -156 q 609 -144 624 -156 q 593 -110 593 -132 l 593 844 l 472 844 l 472 -110 q 457 -140 472 -130 q 419 -151 441 -151 q 381 -140 397 -151 q 365 -110 365 -129 z "},"•":{"ha":968,"x_min":293,"x_max":675,"o":"m 485 665 q 580 639 537 665 q 650 567 624 612 q 675 472 675 523 q 650 376 675 421 q 580 304 624 331 q 485 278 537 278 q 389 304 433 278 q 319 375 345 330 q 293 472 293 420 q 349 608 293 551 q 485 665 406 665 z "},"‚":{"ha":413,"x_min":42,"x_max":358,"o":"m 54 -60 l 179 157 q 258 203 207 203 q 328 175 297 203 q 358 110 358 148 q 347 62 358 87 l 225 -154 q 143 -203 198 -203 q 72 -173 102 -203 q 42 -103 42 -144 q 54 -60 44 -80 z "},"„":{"ha":679,"x_min":42,"x_max":622,"o":"m 53 -57 l 165 139 q 195 169 176 158 q 236 180 214 180 q 298 156 270 180 q 327 97 327 131 q 315 54 327 73 l 207 -142 q 132 -185 182 -185 q 69 -158 96 -185 q 42 -95 42 -132 q 53 -57 42 -75 m 349 -57 l 461 139 q 533 180 487 180 q 595 156 568 180 q 622 97 622 131 q 612 54 622 74 l 503 -142 q 429 -185 478 -185 q 365 -158 392 -185 q 337 -95 337 -132 q 349 -57 339 -76 z "},"”":{"ha":679,"x_min":50,"x_max":631,"o":"m 61 712 l 174 908 q 244 950 197 950 q 307 925 278 950 q 335 867 335 900 q 323 824 335 842 l 215 628 q 140 585 190 585 q 77 611 104 585 q 50 675 50 638 q 61 712 50 694 m 357 712 l 469 908 q 542 950 495 950 q 603 925 576 950 q 631 867 631 900 q 621 824 631 844 l 511 628 q 437 585 486 585 q 373 611 400 585 q 346 675 346 637 q 357 712 348 694 z "},"»":{"ha":838,"x_min":97,"x_max":740,"o":"m 592 376 l 458 514 q 431 578 431 542 q 453 640 431 612 q 508 667 475 667 q 589 625 558 667 l 706 464 q 740 376 740 419 q 706 290 740 335 l 589 128 q 508 86 558 86 q 453 114 475 86 q 431 176 431 142 q 458 240 431 210 l 592 376 m 258 376 l 125 514 q 97 578 97 541 q 120 640 97 612 q 175 667 142 667 q 256 625 225 667 l 372 464 q 407 376 407 419 q 372 290 407 335 l 256 128 q 175 86 225 86 q 120 114 142 86 q 97 176 97 142 q 125 240 97 210 l 258 376 z "},"…":{"ha":1153,"x_min":93,"x_max":1060,"o":"m 93 90 q 127 169 93 136 q 207 203 160 203 q 263 188 237 203 q 304 146 289 172 q 319 90 319 120 q 286 10 319 44 q 207 -24 253 -24 q 126 10 160 -24 q 93 90 93 43 m 464 90 q 497 169 464 136 q 576 203 531 203 q 657 169 623 203 q 690 90 690 136 q 657 10 690 43 q 576 -24 623 -24 q 497 10 530 -24 q 464 90 464 43 m 833 90 q 867 169 833 136 q 947 203 901 203 q 1003 188 977 203 q 1044 146 1029 172 q 1060 90 1060 120 q 1027 10 1060 44 q 947 -24 994 -24 q 867 10 900 -24 q 833 90 833 44 z "},"‰":{"ha":1724,"x_min":43,"x_max":1601,"o":"m 43 647 q 87 844 43 765 q 159 921 113 891 q 254 951 204 951 q 379 906 329 951 q 451 791 428 860 q 474 649 474 722 q 451 506 474 575 q 378 391 428 437 q 254 346 329 346 q 159 376 204 346 q 87 451 114 406 q 43 647 43 531 m 258 476 q 322 528 309 476 q 336 650 336 580 q 322 772 336 720 q 258 824 309 824 q 194 771 208 824 q 180 646 180 718 q 195 527 180 578 q 258 476 209 476 m 682 296 q 726 493 682 413 q 798 569 753 540 q 893 598 843 598 q 1017 553 967 598 q 1090 439 1067 508 q 1113 296 1113 370 q 1090 154 1113 223 q 1017 40 1067 85 q 893 -5 967 -5 q 798 24 843 -5 q 726 100 753 53 q 682 296 682 180 m 897 124 q 961 176 948 124 q 975 297 975 228 q 961 420 975 368 q 897 472 948 472 q 833 419 847 472 q 820 294 820 366 q 897 124 820 124 m 357 86 l 681 901 q 736 949 703 949 q 787 934 764 949 q 811 893 809 919 q 804 853 811 868 l 474 24 q 419 -25 455 -25 q 369 -9 392 -25 q 345 32 347 6 q 357 86 345 55 m 1171 296 q 1215 493 1171 413 q 1286 569 1241 539 q 1382 598 1332 598 q 1506 553 1456 598 q 1579 439 1556 508 q 1601 296 1601 370 q 1579 154 1601 223 q 1506 40 1556 85 q 1382 -5 1456 -5 q 1286 24 1332 -5 q 1215 100 1241 54 q 1171 296 1171 180 m 1386 124 q 1450 176 1437 124 q 1464 297 1464 228 q 1450 420 1464 368 q 1386 472 1437 472 q 1322 419 1336 472 q 1308 294 1308 366 q 1386 124 1308 124 z "},"¿":{"ha":712,"x_min":44,"x_max":668,"o":"m 492 835 q 458 756 492 789 q 378 722 424 722 q 299 756 332 722 q 265 835 265 789 q 298 915 265 882 q 378 949 332 949 q 458 915 425 949 q 492 835 492 882 m 275 542 q 289 621 275 593 q 326 658 301 644 q 376 672 350 672 q 451 639 424 672 q 479 558 479 607 l 479 471 q 459 408 479 427 q 392 382 439 390 q 274 271 274 364 q 306 208 274 232 q 378 183 338 183 q 480 247 434 183 q 568 306 523 306 q 640 277 611 306 q 668 204 668 248 q 641 110 668 153 q 568 38 613 68 q 471 -8 523 8 q 370 -24 418 -24 q 212 12 287 -24 q 90 112 136 47 q 44 262 44 177 q 106 444 44 371 q 275 542 167 517 z "},"`":{"ha":736,"x_min":188,"x_max":555,"o":"m 454 773 l 239 839 q 201 866 215 846 q 188 912 188 886 q 209 957 188 939 q 258 975 230 975 q 282 972 274 975 l 500 908 q 540 882 525 901 q 555 839 555 864 q 534 789 555 809 q 483 768 513 768 q 454 773 474 768 z "},"´":{"ha":736,"x_min":185,"x_max":553,"o":"m 240 908 l 458 972 q 482 975 467 975 q 530 957 510 975 q 553 912 551 940 q 502 839 553 855 l 286 773 q 257 768 267 768 q 206 789 227 768 q 185 839 185 810 q 200 883 185 864 q 240 908 216 901 z "},"ˆ":{"ha":736,"x_min":114,"x_max":622,"o":"m 368 812 l 211 753 q 182 747 192 747 q 134 770 154 747 q 114 821 114 792 q 127 858 114 841 q 160 882 141 876 l 340 949 q 367 954 357 954 q 380 952 371 954 q 392 949 389 949 l 568 889 q 622 822 622 869 q 601 771 622 793 q 550 750 579 750 q 533 753 544 750 l 368 812 z "},"˜":{"ha":736,"x_min":97,"x_max":646,"o":"m 97 824 q 141 923 97 883 q 247 964 185 962 q 367 938 314 964 l 424 908 q 472 895 449 895 q 500 903 490 895 q 519 928 510 911 q 575 965 538 965 q 625 947 604 965 q 646 900 646 928 q 622 824 646 857 q 561 771 599 790 q 482 753 523 753 q 367 786 434 753 q 271 824 299 821 q 228 800 241 824 l 213 775 q 164 751 197 751 q 116 772 134 751 q 97 824 97 793 z "},"¯":{"ha":736,"x_min":133,"x_max":633,"o":"m 555 800 l 211 800 q 156 819 179 800 q 133 869 133 837 q 156 920 133 901 q 211 939 178 939 l 555 939 q 611 920 588 939 q 633 869 633 902 q 611 819 633 838 q 555 800 588 800 z "},"˘":{"ha":736,"x_min":158,"x_max":593,"o":"m 376 740 q 192 810 266 740 q 161 856 166 832 q 158 871 158 867 q 173 909 158 891 q 210 930 189 926 q 272 904 247 930 q 376 858 321 858 q 468 893 427 858 q 507 922 493 913 q 545 930 522 930 q 580 907 566 927 q 593 854 593 886 q 544 793 582 820 q 459 754 506 767 q 376 740 412 740 z "},"˙":{"ha":736,"x_min":267,"x_max":471,"o":"m 267 868 q 297 940 267 910 q 368 971 327 971 q 419 957 395 971 q 457 919 443 943 q 471 868 471 896 q 440 797 471 826 q 368 767 410 767 q 297 797 327 767 q 267 868 267 826 z "},"¨":{"ha":736,"x_min":118,"x_max":622,"o":"m 118 868 q 148 940 118 910 q 219 971 178 971 q 270 957 247 971 q 308 919 294 943 q 322 868 322 896 q 292 797 322 826 q 219 767 261 767 q 148 797 178 767 q 118 868 118 826 m 419 868 q 449 940 419 910 q 521 971 479 971 q 592 940 563 971 q 622 868 622 910 q 592 797 622 826 q 521 767 563 767 q 449 797 479 767 q 419 868 419 826 z "},"˚":{"ha":736,"x_min":242,"x_max":496,"o":"m 242 892 q 280 981 242 944 q 370 1018 317 1018 q 432 1001 403 1018 q 479 954 461 984 q 496 892 496 925 q 459 802 496 840 q 370 764 421 764 q 306 781 336 764 q 259 828 277 799 q 242 892 242 858 m 311 892 q 329 851 311 868 q 370 833 346 833 q 410 851 393 833 q 426 892 426 868 q 410 932 426 915 q 370 949 393 949 q 329 932 346 949 q 311 892 311 915 z "},"¸":{"ha":736,"x_min":243,"x_max":493,"o":"m 493 0 l 362 -179 q 307 -208 342 -208 q 264 -190 284 -208 q 243 -149 244 -171 q 257 -107 243 -125 l 332 0 l 493 0 z "},"˝":{"ha":736,"x_min":140,"x_max":612,"o":"m 383 953 l 246 760 l 140 760 l 215 953 l 383 953 m 612 953 l 475 760 l 370 760 l 443 953 l 612 953 z "},"˛":{"ha":736,"x_min":290,"x_max":522,"o":"m 372 0 l 465 0 q 389 -114 389 -57 q 409 -156 389 -140 q 457 -175 430 -172 q 522 -168 495 -175 l 522 -244 q 433 -258 472 -258 q 335 -230 379 -258 q 290 -154 290 -202 q 372 0 290 -70 z "},"ˇ":{"ha":736,"x_min":114,"x_max":622,"o":"m 368 882 l 533 942 q 550 944 544 944 q 601 923 579 944 q 622 872 622 902 q 568 806 622 825 l 392 747 q 367 740 376 740 q 340 746 356 740 l 160 812 q 127 837 140 821 q 114 873 114 854 q 134 925 114 902 q 182 947 154 947 q 211 942 192 947 l 368 882 z "},"—":{"ha":822,"x_min":-108,"x_max":929,"o":"m -11 469 l 832 469 q 902 447 874 469 q 929 383 929 424 q 901 319 929 343 q 832 296 873 296 l -11 296 q -80 319 -52 296 q -108 383 -108 342 q -80 446 -108 424 q -11 469 -53 469 z "},"Æ":{"ha":1138,"x_min":54,"x_max":1081,"o":"m 747 736 l 747 564 l 953 564 q 1028 539 999 564 q 1058 469 1058 514 q 1028 401 1058 426 q 953 375 997 375 l 747 375 l 747 190 l 975 190 q 1050 165 1020 190 q 1081 96 1081 140 q 1050 26 1081 52 q 975 0 1019 0 l 668 0 q 551 58 590 0 q 535 158 535 87 l 293 158 l 261 79 q 167 -14 227 -5 q 89 12 122 -14 q 54 76 56 37 q 67 138 54 108 l 378 854 q 398 880 380 862 q 441 912 415 898 q 494 926 467 926 l 975 926 q 1050 901 1020 926 q 1081 832 1081 876 q 1050 762 1081 788 q 975 736 1019 736 l 747 736 m 535 347 l 535 725 l 375 347 l 535 347 z "},"ª":{"ha":524,"x_min":48,"x_max":479,"o":"m 117 506 l 411 506 q 460 493 441 506 q 479 455 479 480 q 460 417 479 431 q 411 403 440 403 l 117 403 q 68 417 87 404 q 48 455 48 431 q 68 492 48 479 q 117 506 88 506 m 337 598 q 295 562 315 573 q 243 551 274 551 q 132 594 182 551 q 65 755 65 655 q 124 906 65 847 q 240 957 177 957 q 337 912 295 957 q 392 954 355 954 q 433 938 417 954 q 450 897 450 922 l 450 621 q 434 574 450 594 q 392 554 418 554 q 337 598 353 554 m 178 757 q 196 688 178 718 q 253 657 215 659 q 311 685 290 657 q 333 751 333 713 q 313 824 333 795 q 253 853 294 853 q 198 823 218 853 q 178 757 178 792 z "},"Ø":{"ha":1006,"x_min":43,"x_max":961,"o":"m 740 886 l 775 928 q 811 957 794 951 q 858 963 828 963 q 906 939 885 963 q 926 885 926 915 q 924 868 926 879 q 900 824 921 852 l 865 781 q 928 667 909 717 q 961 486 961 576 q 836 118 961 252 q 504 -22 706 -22 q 382 -5 438 -22 q 257 48 327 12 l 229 14 q 147 -22 199 -22 q 98 7 117 -22 q 79 72 79 37 q 101 118 79 91 l 138 161 q 68 289 87 230 q 43 479 43 367 q 101 717 43 609 q 262 888 158 825 q 496 950 365 950 q 740 886 628 950 m 386 199 q 503 167 443 167 q 607 190 557 167 q 688 256 656 213 q 747 483 747 336 q 724 610 747 538 l 386 199 m 612 732 q 500 760 565 760 q 410 743 454 760 q 336 696 367 727 q 256 476 256 617 q 279 332 256 393 l 612 732 z "},"Œ":{"ha":1342,"x_min":43,"x_max":1283,"o":"m 944 736 l 944 561 l 1150 561 q 1226 536 1196 561 q 1256 465 1256 511 q 1225 397 1256 422 q 1150 371 1195 371 l 944 371 l 944 189 l 1178 189 q 1253 164 1223 189 q 1283 95 1283 139 q 1253 25 1283 51 q 1178 0 1222 0 l 829 0 q 771 11 790 0 q 753 58 753 22 q 629 -4 693 15 q 486 -24 564 -24 q 313 9 398 -24 q 170 101 229 41 q 73 267 102 171 q 43 471 43 363 q 80 665 43 570 q 185 826 116 760 q 274 892 224 864 q 379 934 324 920 q 489 949 434 949 q 634 930 576 949 q 753 858 692 910 q 770 910 755 896 q 824 925 785 925 l 1178 925 q 1253 900 1223 925 q 1283 830 1283 874 q 1253 761 1283 787 q 1178 736 1222 736 l 944 736 m 274 464 q 333 249 274 326 q 409 188 365 210 q 502 167 454 167 q 631 209 578 167 q 708 320 683 252 q 733 463 733 388 q 708 605 733 537 q 631 716 683 673 q 502 758 578 758 q 408 737 453 758 q 333 676 364 715 q 274 464 274 597 z "},"º":{"ha":524,"x_min":48,"x_max":479,"o":"m 117 506 l 411 506 q 460 493 441 506 q 479 455 479 480 q 460 417 479 431 q 411 403 440 403 l 117 403 q 68 417 87 404 q 48 455 48 431 q 68 492 48 479 q 117 506 88 506 m 67 757 q 118 901 67 846 q 182 948 145 931 q 258 965 219 965 q 400 901 343 965 q 451 757 451 844 q 400 614 451 671 q 337 567 374 584 q 260 550 299 550 q 182 567 220 550 q 118 614 144 584 q 67 757 67 667 m 179 757 q 200 689 179 720 q 257 659 221 659 q 316 689 294 659 q 337 757 337 719 q 316 827 337 796 q 257 857 294 857 q 200 825 221 857 q 179 757 179 793 z "},"æ":{"ha":1246,"x_min":43,"x_max":1201,"o":"m 729 293 q 803 200 756 225 q 897 176 845 176 q 999 194 952 176 l 1054 215 q 1095 223 1079 223 q 1163 200 1136 223 q 1190 140 1190 176 q 1137 54 1190 90 q 1013 3 1084 19 q 893 -14 941 -14 q 775 3 832 -14 q 693 53 740 13 q 610 -10 691 -10 q 552 11 570 -10 q 532 74 534 32 q 455 10 493 25 q 343 -14 404 -14 q 228 16 286 -14 q 131 92 170 45 q 66 215 89 142 q 43 358 43 288 q 67 496 43 428 q 136 614 91 563 q 238 690 179 661 q 357 718 296 718 q 457 701 418 718 q 535 639 496 684 q 611 712 537 712 q 664 703 645 712 q 693 664 684 693 q 860 718 764 718 q 990 689 927 718 q 1099 610 1052 660 q 1174 497 1147 561 q 1201 365 1201 433 q 1176 308 1201 323 q 1104 293 1151 293 l 729 293 m 999 429 q 860 557 964 557 q 768 517 809 557 q 725 429 737 486 l 999 429 m 247 349 q 282 228 247 276 q 379 176 324 176 q 488 231 451 176 q 525 360 525 285 q 509 444 525 406 q 462 505 494 482 q 385 528 431 528 q 308 501 339 528 q 262 434 277 475 q 247 349 247 392 z "},"ı":{"ha":397,"x_min":95,"x_max":299,"o":"m 95 104 l 95 600 q 122 680 95 648 q 196 712 149 712 q 271 680 243 712 q 299 600 299 648 l 299 104 q 271 23 299 55 q 196 -10 244 -10 q 122 23 150 -10 q 95 104 95 56 z "},"ø":{"ha":844,"x_min":85,"x_max":781,"o":"m 618 667 l 628 676 q 666 710 649 700 q 710 720 682 720 q 760 694 740 720 q 781 631 781 669 q 770 602 781 616 q 743 569 760 588 l 728 553 q 778 360 778 464 q 676 89 778 190 q 563 13 629 40 q 431 -14 498 -14 q 247 40 327 -14 l 228 18 q 146 -11 198 -11 q 103 12 121 -11 q 85 64 85 36 q 87 83 85 72 q 113 126 93 104 l 138 154 q 87 354 87 256 q 114 493 87 427 q 188 610 140 558 q 301 690 237 661 q 439 718 366 718 q 618 667 526 718 m 372 174 q 428 160 402 160 q 517 186 480 160 q 573 257 554 213 q 592 353 592 301 q 590 378 592 361 q 588 403 588 395 l 372 174 m 488 528 q 426 542 455 542 q 315 483 361 542 q 274 340 274 429 q 274 321 274 334 q 275 301 275 309 l 488 528 z "},"œ":{"ha":1249,"x_min":44,"x_max":1204,"o":"m 735 294 q 793 204 749 231 q 900 176 839 176 q 1003 196 953 176 l 1058 217 q 1099 227 1084 225 q 1164 201 1138 227 q 1190 140 1190 176 q 1135 51 1190 85 q 1005 1 1079 16 q 879 -14 932 -14 q 622 86 726 -14 q 378 -14 514 -14 q 241 15 302 -14 q 135 96 179 45 q 67 215 91 148 q 44 354 44 282 q 132 604 44 504 q 243 687 177 657 q 378 718 309 718 q 513 695 454 718 q 631 622 572 672 q 858 718 725 718 q 1025 677 950 718 q 1144 558 1099 636 q 1185 459 1166 522 q 1204 343 1204 395 q 1119 294 1198 294 l 735 294 m 1004 428 q 869 555 971 555 q 729 428 770 555 l 1004 428 m 249 350 q 284 230 249 284 q 383 176 320 176 q 488 231 450 176 q 526 354 526 285 q 487 475 526 422 q 380 528 448 528 q 282 474 316 528 q 249 350 249 420 z "},"ß":{"ha":803,"x_min":81,"x_max":758,"o":"m 596 563 q 708 479 666 538 q 758 318 758 409 q 672 92 758 189 q 457 -14 578 -14 q 371 10 405 -14 q 337 83 337 34 q 370 153 337 127 q 433 176 383 163 q 517 231 488 191 q 546 328 546 271 q 518 407 546 377 q 442 447 491 438 q 388 461 405 455 q 354 482 371 466 q 329 549 329 507 q 347 608 329 588 q 404 640 365 629 q 485 733 485 662 q 471 783 485 762 q 434 817 457 805 q 383 829 410 829 q 338 817 360 829 q 304 785 316 805 q 285 674 285 751 l 285 104 q 258 23 285 56 q 182 -10 230 -10 q 108 23 136 -10 q 81 104 81 56 l 81 700 q 170 933 81 847 q 268 996 211 974 q 386 1018 325 1018 q 600 940 516 1018 q 662 855 639 904 q 685 755 685 807 q 665 646 685 689 q 596 563 646 603 z "},"Á":{"ha":885,"x_min":31,"x_max":861,"o":"m 624 176 l 268 176 l 246 96 q 151 -14 217 -14 q 72 8 106 -14 q 31 71 37 30 q 39 138 31 114 l 289 825 q 350 911 308 879 q 446 944 391 944 q 542 912 500 944 q 603 825 584 879 l 853 138 q 861 71 861 113 q 821 8 857 30 q 740 -14 786 -14 q 686 13 710 -14 q 653 74 663 39 l 624 176 m 560 367 l 447 720 l 335 367 l 560 367 m 315 1139 l 533 1203 q 557 1205 542 1205 q 605 1188 585 1205 q 628 1143 626 1171 q 576 1069 628 1085 l 361 1004 q 332 999 341 999 q 281 1019 302 999 q 260 1069 260 1040 q 275 1113 260 1095 q 315 1139 291 1132 z "},"Â":{"ha":885,"x_min":31,"x_max":861,"o":"m 624 176 l 268 176 l 246 96 q 151 -14 217 -14 q 72 8 106 -14 q 31 71 37 30 q 39 138 31 114 l 289 825 q 350 911 308 879 q 446 944 391 944 q 542 912 500 944 q 603 825 584 879 l 853 138 q 861 71 861 113 q 821 8 857 30 q 740 -14 786 -14 q 686 13 710 -14 q 653 74 663 39 l 624 176 m 560 367 l 447 720 l 335 367 l 560 367 m 446 1071 l 289 1011 q 260 1006 269 1006 q 212 1028 232 1006 q 192 1079 192 1051 q 205 1117 192 1099 q 237 1140 218 1134 l 418 1207 q 444 1213 434 1213 q 458 1210 449 1213 q 469 1207 467 1207 l 646 1147 q 700 1081 700 1128 q 678 1030 700 1051 q 628 1008 656 1008 q 611 1011 622 1008 l 446 1071 z "},"Ä":{"ha":885,"x_min":31,"x_max":861,"o":"m 624 176 l 268 176 l 246 96 q 151 -14 217 -14 q 72 8 106 -14 q 31 71 37 30 q 39 138 31 114 l 289 825 q 350 911 308 879 q 446 944 391 944 q 542 912 500 944 q 603 825 584 879 l 853 138 q 861 71 861 113 q 821 8 857 30 q 740 -14 786 -14 q 686 13 710 -14 q 653 74 663 39 l 624 176 m 560 367 l 447 720 l 335 367 l 560 367 m 194 1100 q 224 1172 194 1142 q 296 1203 254 1203 q 347 1189 323 1203 q 384 1151 370 1175 q 398 1100 398 1127 q 368 1028 398 1058 q 296 999 337 999 q 224 1028 254 999 q 194 1100 194 1058 m 496 1100 q 526 1172 496 1142 q 597 1203 555 1203 q 669 1172 639 1203 q 699 1100 699 1142 q 669 1028 699 1058 q 597 999 639 999 q 526 1028 555 999 q 496 1100 496 1058 z "},"À":{"ha":885,"x_min":31,"x_max":861,"o":"m 624 176 l 268 176 l 246 96 q 151 -14 217 -14 q 72 8 106 -14 q 31 71 37 30 q 39 138 31 114 l 289 825 q 350 911 308 879 q 446 944 391 944 q 542 912 500 944 q 603 825 584 879 l 853 138 q 861 71 861 113 q 821 8 857 30 q 740 -14 786 -14 q 686 13 710 -14 q 653 74 663 39 l 624 176 m 560 367 l 447 720 l 335 367 l 560 367 m 528 1004 l 313 1069 q 275 1097 289 1077 q 261 1143 261 1117 q 282 1187 261 1170 q 332 1205 303 1205 q 355 1203 347 1205 l 574 1139 q 614 1113 598 1132 q 629 1069 629 1095 q 608 1019 629 1040 q 557 999 587 999 q 528 1004 547 999 z "},"Å":{"ha":885,"x_min":31,"x_max":861,"o":"m 624 176 l 268 176 l 246 96 q 151 -14 217 -14 q 72 8 106 -14 q 31 71 37 30 q 39 138 31 114 l 289 825 q 350 911 308 879 q 446 944 391 944 q 542 912 500 944 q 603 825 584 879 l 853 138 q 861 71 861 113 q 821 8 857 30 q 740 -14 786 -14 q 686 13 710 -14 q 653 74 663 39 l 624 176 m 560 367 l 447 720 l 335 367 l 560 367 m 319 1124 q 357 1213 319 1176 q 447 1250 395 1250 q 510 1233 480 1250 q 556 1186 539 1216 q 573 1124 573 1157 q 536 1034 573 1072 q 447 996 499 996 q 384 1013 413 996 q 337 1060 354 1031 q 319 1124 319 1090 m 389 1124 q 406 1083 389 1100 q 447 1065 424 1065 q 487 1083 471 1065 q 504 1124 504 1100 q 487 1164 504 1147 q 447 1181 471 1181 q 406 1164 424 1181 q 389 1124 389 1147 z "},"Ã":{"ha":885,"x_min":31,"x_max":861,"o":"m 624 176 l 268 176 l 246 96 q 151 -14 217 -14 q 72 8 106 -14 q 31 71 37 30 q 39 138 31 114 l 289 825 q 350 911 308 879 q 446 944 391 944 q 542 912 500 944 q 603 825 584 879 l 853 138 q 861 71 861 113 q 821 8 857 30 q 740 -14 786 -14 q 686 13 710 -14 q 653 74 663 39 l 624 176 m 560 367 l 447 720 l 335 367 l 560 367 m 172 1068 q 216 1167 172 1128 q 322 1208 260 1206 q 441 1182 389 1208 l 498 1153 q 547 1139 524 1139 q 575 1147 565 1139 q 594 1172 585 1155 q 650 1210 613 1210 q 700 1191 679 1210 q 721 1144 721 1172 q 697 1068 721 1102 q 636 1016 674 1035 q 557 997 597 997 q 441 1030 509 997 q 346 1068 374 1066 q 303 1044 316 1068 l 288 1020 q 239 996 272 996 q 191 1017 209 996 q 172 1068 172 1037 z "},"Ç":{"ha":836,"x_min":52,"x_max":794,"o":"m 563 -21 l 450 -179 q 394 -208 430 -208 q 351 -190 372 -208 q 329 -149 330 -171 q 343 -107 329 -125 l 410 -13 q 193 96 274 17 q 52 492 52 237 q 85 673 52 589 q 180 819 118 756 q 326 915 241 881 q 510 949 410 949 q 697 918 608 949 q 786 812 786 888 q 764 738 786 770 q 703 706 743 706 q 624 726 681 706 q 515 750 565 750 q 382 712 435 750 q 303 610 329 674 q 278 467 278 546 q 357 233 278 309 q 514 176 418 176 q 598 190 570 176 l 661 218 q 703 229 686 228 q 769 199 744 229 q 794 128 794 169 q 722 24 794 59 q 563 -21 649 -11 z "},"É":{"ha":682,"x_min":86,"x_max":624,"o":"m 299 736 l 299 560 l 497 560 q 572 534 542 560 q 603 464 603 509 q 572 395 603 421 q 497 370 541 370 l 299 370 l 299 190 l 518 190 q 594 165 564 190 q 624 95 624 140 q 593 26 624 51 q 518 0 563 0 l 215 0 q 120 34 154 0 q 86 129 86 68 l 86 797 q 120 892 86 858 q 215 926 154 926 l 518 926 q 594 901 564 926 q 624 830 624 876 q 593 762 624 787 q 518 736 563 736 l 299 736 m 211 1139 l 429 1203 q 453 1205 437 1205 q 501 1188 480 1205 q 524 1143 522 1171 q 472 1069 524 1085 l 257 1004 q 228 999 237 999 q 177 1019 198 999 q 156 1069 156 1040 q 171 1113 156 1095 q 211 1139 187 1132 z "},"Ê":{"ha":682,"x_min":86,"x_max":624,"o":"m 299 736 l 299 560 l 497 560 q 572 534 542 560 q 603 464 603 509 q 572 395 603 421 q 497 370 541 370 l 299 370 l 299 190 l 518 190 q 594 165 564 190 q 624 95 624 140 q 593 26 624 51 q 518 0 563 0 l 215 0 q 120 34 154 0 q 86 129 86 68 l 86 797 q 120 892 86 858 q 215 926 154 926 l 518 926 q 594 901 564 926 q 624 830 624 876 q 593 762 624 787 q 518 736 563 736 l 299 736 m 341 1071 l 185 1011 q 156 1006 165 1006 q 108 1028 128 1006 q 87 1079 87 1051 q 101 1117 87 1099 q 133 1140 114 1134 l 314 1207 q 340 1213 330 1213 q 354 1210 345 1213 q 365 1207 363 1207 l 542 1147 q 596 1081 596 1128 q 574 1030 596 1051 q 524 1008 552 1008 q 507 1011 518 1008 l 341 1071 z "},"Ë":{"ha":682,"x_min":86,"x_max":624,"o":"m 299 736 l 299 560 l 497 560 q 572 534 542 560 q 603 464 603 509 q 572 395 603 421 q 497 370 541 370 l 299 370 l 299 190 l 518 190 q 594 165 564 190 q 624 95 624 140 q 593 26 624 51 q 518 0 563 0 l 215 0 q 120 34 154 0 q 86 129 86 68 l 86 797 q 120 892 86 858 q 215 926 154 926 l 518 926 q 594 901 564 926 q 624 830 624 876 q 593 762 624 787 q 518 736 563 736 l 299 736 m 90 1100 q 120 1172 90 1142 q 192 1203 150 1203 q 243 1189 219 1203 q 280 1151 266 1175 q 294 1100 294 1127 q 264 1028 294 1058 q 192 999 233 999 q 120 1028 150 999 q 90 1100 90 1058 m 392 1100 q 421 1172 392 1142 q 493 1203 451 1203 q 565 1172 535 1203 q 594 1100 594 1142 q 565 1028 594 1058 q 493 999 535 999 q 421 1028 451 999 q 392 1100 392 1058 z "},"È":{"ha":682,"x_min":86,"x_max":624,"o":"m 299 736 l 299 560 l 497 560 q 572 534 542 560 q 603 464 603 509 q 572 395 603 421 q 497 370 541 370 l 299 370 l 299 190 l 518 190 q 594 165 564 190 q 624 95 624 140 q 593 26 624 51 q 518 0 563 0 l 215 0 q 120 34 154 0 q 86 129 86 68 l 86 797 q 120 892 86 858 q 215 926 154 926 l 518 926 q 594 901 564 926 q 624 830 624 876 q 593 762 624 787 q 518 736 563 736 l 299 736 m 422 1004 l 207 1069 q 170 1097 183 1077 q 156 1143 156 1117 q 177 1187 156 1170 q 227 1205 198 1205 q 250 1203 242 1205 l 468 1139 q 508 1113 493 1132 q 524 1069 524 1095 q 502 1019 524 1040 q 451 999 481 999 q 422 1004 442 999 z "},"Í":{"ha":383,"x_min":7,"x_max":375,"o":"m 86 104 l 86 822 q 115 906 86 872 q 193 940 143 940 q 271 906 242 940 q 299 822 299 872 l 299 104 q 271 20 299 54 q 193 -14 243 -14 q 115 20 144 -14 q 86 104 86 54 m 63 1139 l 281 1203 q 304 1205 289 1205 q 352 1188 332 1205 q 375 1143 373 1171 q 324 1069 375 1085 l 109 1004 q 79 999 89 999 q 28 1019 50 999 q 7 1069 7 1040 q 23 1113 7 1095 q 63 1139 38 1132 z "},"Î":{"ha":383,"x_min":-61,"x_max":447,"o":"m 86 104 l 86 822 q 115 906 86 872 q 193 940 143 940 q 271 906 242 940 q 299 822 299 872 l 299 104 q 271 20 299 54 q 193 -14 243 -14 q 115 20 144 -14 q 86 104 86 54 m 193 1071 l 36 1011 q 7 1006 17 1006 q -41 1028 -21 1006 q -61 1079 -61 1051 q -48 1117 -61 1099 q -15 1140 -34 1134 l 165 1207 q 192 1213 182 1213 q 205 1210 196 1213 q 217 1207 214 1207 l 393 1147 q 447 1081 447 1128 q 426 1030 447 1051 q 375 1008 404 1008 q 358 1011 369 1008 l 193 1071 z "},"Ï":{"ha":383,"x_min":-60,"x_max":445,"o":"m 86 104 l 86 822 q 115 906 86 872 q 193 940 143 940 q 271 906 242 940 q 299 822 299 872 l 299 104 q 271 20 299 54 q 193 -14 243 -14 q 115 20 144 -14 q 86 104 86 54 m -60 1100 q -30 1172 -60 1142 q 42 1203 0 1203 q 93 1189 69 1203 q 130 1151 116 1175 q 144 1100 144 1127 q 114 1028 144 1058 q 42 999 83 999 q -30 1028 0 999 q -60 1100 -60 1058 m 242 1100 q 272 1172 242 1142 q 343 1203 301 1203 q 415 1172 385 1203 q 445 1100 445 1142 q 415 1028 445 1058 q 343 999 385 999 q 272 1028 301 999 q 242 1100 242 1058 z "},"Ì":{"ha":383,"x_min":7,"x_max":375,"o":"m 86 104 l 86 822 q 115 906 86 872 q 193 940 143 940 q 271 906 242 940 q 299 822 299 872 l 299 104 q 271 20 299 54 q 193 -14 243 -14 q 115 20 144 -14 q 86 104 86 54 m 274 1004 l 59 1069 q 21 1097 35 1077 q 7 1143 7 1117 q 28 1187 7 1170 q 78 1205 50 1205 q 101 1203 93 1205 l 320 1139 q 360 1113 345 1132 q 375 1069 375 1095 q 354 1019 375 1040 q 303 999 333 999 q 274 1004 293 999 z "},"Ñ":{"ha":987,"x_min":86,"x_max":901,"o":"m 299 561 l 299 104 q 271 20 299 54 q 193 -14 243 -14 q 115 20 144 -14 q 86 104 86 54 l 86 830 q 115 909 86 877 q 190 940 144 940 q 279 893 243 940 l 689 378 l 689 822 q 718 906 689 872 q 796 940 746 940 q 873 906 845 940 q 901 822 901 872 l 901 108 q 873 18 901 49 q 803 -14 842 -14 q 718 26 748 -14 l 299 561 m 219 1068 q 263 1167 219 1128 q 369 1208 308 1206 q 489 1182 436 1208 l 546 1153 q 594 1139 571 1139 q 622 1147 612 1139 q 642 1172 632 1155 q 697 1210 660 1210 q 747 1191 726 1210 q 768 1144 768 1172 q 744 1068 768 1102 q 683 1016 721 1035 q 604 997 645 997 q 489 1030 556 997 q 393 1068 421 1066 q 350 1044 363 1068 l 335 1020 q 286 996 319 996 q 238 1017 256 996 q 219 1068 219 1037 z "},"Ó":{"ha":1004,"x_min":44,"x_max":960,"o":"m 44 469 q 82 672 44 576 q 196 835 120 767 q 502 949 322 949 q 689 913 605 949 q 834 811 774 877 q 927 658 895 746 q 960 469 960 571 q 922 257 960 357 q 807 87 885 157 q 668 4 746 32 q 503 -24 590 -24 q 321 11 407 -24 q 171 113 234 45 q 44 469 44 246 m 271 468 q 296 323 271 393 q 372 210 320 254 q 503 167 425 167 q 634 210 583 167 q 710 321 686 252 q 733 468 733 389 q 708 610 733 544 q 631 718 683 677 q 500 758 578 758 q 413 738 455 758 q 340 685 370 718 q 271 468 271 606 m 372 1139 l 590 1203 q 614 1205 598 1205 q 662 1188 642 1205 q 685 1143 683 1171 q 633 1069 685 1085 l 418 1004 q 389 999 398 999 q 338 1019 359 999 q 317 1069 317 1040 q 332 1113 317 1095 q 372 1139 348 1132 z "},"Ô":{"ha":1004,"x_min":44,"x_max":960,"o":"m 44 469 q 82 672 44 576 q 196 835 120 767 q 502 949 322 949 q 689 913 605 949 q 834 811 774 877 q 927 658 895 746 q 960 469 960 571 q 922 257 960 357 q 807 87 885 157 q 668 4 746 32 q 503 -24 590 -24 q 321 11 407 -24 q 171 113 234 45 q 44 469 44 246 m 271 468 q 296 323 271 393 q 372 210 320 254 q 503 167 425 167 q 634 210 583 167 q 710 321 686 252 q 733 468 733 389 q 708 610 733 544 q 631 718 683 677 q 500 758 578 758 q 413 738 455 758 q 340 685 370 718 q 271 468 271 606 m 503 1071 l 346 1011 q 317 1006 326 1006 q 269 1028 289 1006 q 249 1079 249 1051 q 262 1117 249 1099 q 294 1140 275 1134 l 475 1207 q 501 1213 491 1213 q 515 1210 506 1213 q 526 1207 524 1207 l 703 1147 q 757 1081 757 1128 q 735 1030 757 1051 q 685 1008 713 1008 q 668 1011 679 1008 l 503 1071 z "},"Ö":{"ha":1004,"x_min":44,"x_max":960,"o":"m 44 469 q 82 672 44 576 q 196 835 120 767 q 502 949 322 949 q 689 913 605 949 q 834 811 774 877 q 927 658 895 746 q 960 469 960 571 q 922 257 960 357 q 807 87 885 157 q 668 4 746 32 q 503 -24 590 -24 q 321 11 407 -24 q 171 113 234 45 q 44 469 44 246 m 271 468 q 296 323 271 393 q 372 210 320 254 q 503 167 425 167 q 634 210 583 167 q 710 321 686 252 q 733 468 733 389 q 708 610 733 544 q 631 718 683 677 q 500 758 578 758 q 413 738 455 758 q 340 685 370 718 q 271 468 271 606 m 251 1100 q 281 1172 251 1142 q 353 1203 311 1203 q 404 1189 380 1203 q 441 1151 427 1175 q 455 1100 455 1127 q 425 1028 455 1058 q 353 999 394 999 q 281 1028 311 999 q 251 1100 251 1058 m 553 1100 q 583 1172 553 1142 q 654 1203 612 1203 q 726 1172 696 1203 q 755 1100 755 1142 q 726 1028 755 1058 q 654 999 696 999 q 583 1028 612 999 q 553 1100 553 1058 z "},"Ò":{"ha":1004,"x_min":44,"x_max":960,"o":"m 44 469 q 82 672 44 576 q 196 835 120 767 q 502 949 322 949 q 689 913 605 949 q 834 811 774 877 q 927 658 895 746 q 960 469 960 571 q 922 257 960 357 q 807 87 885 157 q 668 4 746 32 q 503 -24 590 -24 q 321 11 407 -24 q 171 113 234 45 q 44 469 44 246 m 271 468 q 296 323 271 393 q 372 210 320 254 q 503 167 425 167 q 634 210 583 167 q 710 321 686 252 q 733 468 733 389 q 708 610 733 544 q 631 718 683 677 q 500 758 578 758 q 413 738 455 758 q 340 685 370 718 q 271 468 271 606 m 583 1004 l 368 1069 q 331 1097 345 1077 q 317 1143 317 1117 q 338 1187 317 1170 q 388 1205 359 1205 q 411 1203 403 1205 l 629 1139 q 669 1113 654 1132 q 685 1069 685 1095 q 663 1019 685 1040 q 612 999 642 999 q 583 1004 603 999 z "},"Õ":{"ha":1004,"x_min":44,"x_max":960,"o":"m 44 469 q 82 672 44 576 q 196 835 120 767 q 502 949 322 949 q 689 913 605 949 q 834 811 774 877 q 927 658 895 746 q 960 469 960 571 q 922 257 960 357 q 807 87 885 157 q 668 4 746 32 q 503 -24 590 -24 q 321 11 407 -24 q 171 113 234 45 q 44 469 44 246 m 271 468 q 296 323 271 393 q 372 210 320 254 q 503 167 425 167 q 634 210 583 167 q 710 321 686 252 q 733 468 733 389 q 708 610 733 544 q 631 718 683 677 q 500 758 578 758 q 413 738 455 758 q 340 685 370 718 q 271 468 271 606 m 228 1068 q 272 1167 228 1128 q 378 1208 316 1206 q 497 1182 444 1208 l 554 1153 q 603 1139 579 1139 q 631 1147 621 1139 q 650 1172 640 1155 q 706 1210 669 1210 q 755 1191 734 1210 q 777 1144 777 1172 q 753 1068 777 1102 q 691 1016 729 1035 q 612 997 653 997 q 497 1030 564 997 q 401 1068 430 1066 q 358 1044 372 1068 l 343 1020 q 294 996 328 996 q 246 1017 265 996 q 228 1068 228 1037 z "},"Ú":{"ha":958,"x_min":76,"x_max":882,"o":"m 882 821 l 882 406 q 867 252 882 315 q 807 131 852 189 q 662 17 749 57 q 480 -24 575 -24 q 326 4 400 -24 q 196 81 253 31 q 108 200 140 131 q 76 351 76 270 l 76 821 q 105 905 76 871 q 183 939 134 939 q 261 905 233 939 q 289 821 289 871 l 289 382 q 333 239 289 293 q 399 192 359 209 q 479 175 439 175 q 563 194 522 175 q 629 247 604 213 q 669 406 669 300 l 669 821 q 698 905 669 871 q 775 939 726 939 q 853 905 824 939 q 882 821 882 871 m 349 1139 l 567 1203 q 590 1205 575 1205 q 638 1188 618 1205 q 661 1143 659 1171 q 610 1069 661 1085 l 394 1004 q 365 999 375 999 q 314 1019 335 999 q 293 1069 293 1040 q 309 1113 293 1095 q 349 1139 324 1132 z "},"Û":{"ha":958,"x_min":76,"x_max":882,"o":"m 882 821 l 882 406 q 867 252 882 315 q 807 131 852 189 q 662 17 749 57 q 480 -24 575 -24 q 326 4 400 -24 q 196 81 253 31 q 108 200 140 131 q 76 351 76 270 l 76 821 q 105 905 76 871 q 183 939 134 939 q 261 905 233 939 q 289 821 289 871 l 289 382 q 333 239 289 293 q 399 192 359 209 q 479 175 439 175 q 563 194 522 175 q 629 247 604 213 q 669 406 669 300 l 669 821 q 698 905 669 871 q 775 939 726 939 q 853 905 824 939 q 882 821 882 871 m 479 1071 l 322 1011 q 293 1006 303 1006 q 245 1028 266 1006 q 225 1079 225 1051 q 239 1117 225 1099 q 271 1140 252 1134 l 452 1207 q 478 1213 468 1213 q 491 1210 482 1213 q 503 1207 500 1207 l 679 1147 q 733 1081 733 1128 q 712 1030 733 1051 q 661 1008 690 1008 q 645 1011 655 1008 l 479 1071 z "},"Ü":{"ha":958,"x_min":76,"x_max":882,"o":"m 882 821 l 882 406 q 867 252 882 315 q 807 131 852 189 q 662 17 749 57 q 480 -24 575 -24 q 326 4 400 -24 q 196 81 253 31 q 108 200 140 131 q 76 351 76 270 l 76 821 q 105 905 76 871 q 183 939 134 939 q 261 905 233 939 q 289 821 289 871 l 289 382 q 333 239 289 293 q 399 192 359 209 q 479 175 439 175 q 563 194 522 175 q 629 247 604 213 q 669 406 669 300 l 669 821 q 698 905 669 871 q 775 939 726 939 q 853 905 824 939 q 882 821 882 871 m 228 1100 q 258 1172 228 1142 q 329 1203 288 1203 q 380 1189 357 1203 q 418 1151 404 1175 q 432 1100 432 1127 q 401 1028 432 1058 q 329 999 371 999 q 258 1028 288 999 q 228 1100 228 1058 m 529 1100 q 559 1172 529 1142 q 631 1203 589 1203 q 702 1172 672 1203 q 732 1100 732 1142 q 702 1028 732 1058 q 631 999 672 999 q 559 1028 589 999 q 529 1100 529 1058 z "},"Ù":{"ha":958,"x_min":76,"x_max":882,"o":"m 882 821 l 882 406 q 867 252 882 315 q 807 131 852 189 q 662 17 749 57 q 480 -24 575 -24 q 326 4 400 -24 q 196 81 253 31 q 108 200 140 131 q 76 351 76 270 l 76 821 q 105 905 76 871 q 183 939 134 939 q 261 905 233 939 q 289 821 289 871 l 289 382 q 333 239 289 293 q 399 192 359 209 q 479 175 439 175 q 563 194 522 175 q 629 247 604 213 q 669 406 669 300 l 669 821 q 698 905 669 871 q 775 939 726 939 q 853 905 824 939 q 882 821 882 871 m 559 1004 l 345 1069 q 307 1097 321 1077 q 293 1143 293 1117 q 314 1187 293 1170 q 364 1205 335 1205 q 387 1203 379 1205 l 606 1139 q 646 1113 630 1132 q 661 1069 661 1095 q 640 1019 661 1040 q 589 999 618 999 q 559 1004 579 999 z "},"Ÿ":{"ha":842,"x_min":54,"x_max":803,"o":"m 531 437 l 531 104 q 502 20 531 54 q 424 -14 474 -14 q 347 20 375 -14 q 318 104 318 54 l 318 437 l 95 743 q 77 767 89 751 q 60 796 66 783 q 54 824 54 809 q 82 903 54 868 q 150 939 110 939 q 254 883 216 939 l 424 639 l 603 886 q 708 940 640 940 q 776 907 749 940 q 803 828 803 873 q 761 742 803 796 l 531 437 m 179 1100 q 209 1172 179 1142 q 280 1203 239 1203 q 331 1189 308 1203 q 369 1151 355 1175 q 383 1100 383 1127 q 353 1028 383 1058 q 280 999 322 999 q 209 1028 239 999 q 179 1100 179 1058 m 480 1100 q 510 1172 480 1142 q 582 1203 540 1203 q 653 1172 624 1203 q 683 1100 683 1142 q 653 1028 683 1058 q 582 999 624 999 q 510 1028 540 999 q 480 1100 480 1058 z "},"á":{"ha":820,"x_min":43,"x_max":739,"o":"m 535 71 q 459 6 498 26 q 364 -14 420 -14 q 164 64 253 -14 q 43 353 43 171 q 150 625 43 520 q 360 718 243 718 q 455 699 416 718 q 536 637 494 680 q 635 712 567 712 q 709 682 679 712 q 739 608 739 652 l 739 111 q 710 26 739 61 q 633 -10 682 -10 q 535 71 563 -10 m 247 356 q 281 230 247 284 q 382 176 315 176 q 461 200 427 176 q 512 263 494 224 q 529 346 529 302 q 493 476 529 425 q 382 528 457 528 q 283 475 319 528 q 247 356 247 421 m 281 910 l 499 974 q 522 976 507 976 q 571 959 550 976 q 593 914 591 941 q 542 840 593 856 l 327 775 q 297 769 307 769 q 246 790 268 769 q 225 840 225 811 q 241 884 225 865 q 281 910 256 903 z "},"â":{"ha":820,"x_min":43,"x_max":739,"o":"m 535 71 q 459 6 498 26 q 364 -14 420 -14 q 164 64 253 -14 q 43 353 43 171 q 150 625 43 520 q 360 718 243 718 q 455 699 416 718 q 536 637 494 680 q 635 712 567 712 q 709 682 679 712 q 739 608 739 652 l 739 111 q 710 26 739 61 q 633 -10 682 -10 q 535 71 563 -10 m 247 356 q 281 230 247 284 q 382 176 315 176 q 461 200 427 176 q 512 263 494 224 q 529 346 529 302 q 493 476 529 425 q 382 528 457 528 q 283 475 319 528 q 247 356 247 421 m 410 812 l 253 753 q 224 747 233 747 q 176 770 196 747 q 156 821 156 792 q 169 858 156 841 q 201 882 182 876 l 382 949 q 408 954 398 954 q 422 952 413 954 q 433 949 431 949 l 610 889 q 664 822 664 869 q 642 771 664 793 q 592 750 621 750 q 575 753 586 750 l 410 812 z "},"ä":{"ha":820,"x_min":43,"x_max":739,"o":"m 535 71 q 459 6 498 26 q 364 -14 420 -14 q 164 64 253 -14 q 43 353 43 171 q 150 625 43 520 q 360 718 243 718 q 455 699 416 718 q 536 637 494 680 q 635 712 567 712 q 709 682 679 712 q 739 608 739 652 l 739 111 q 710 26 739 61 q 633 -10 682 -10 q 535 71 563 -10 m 247 356 q 281 230 247 284 q 382 176 315 176 q 461 200 427 176 q 512 263 494 224 q 529 346 529 302 q 493 476 529 425 q 382 528 457 528 q 283 475 319 528 q 247 356 247 421 m 160 868 q 190 940 160 910 q 261 971 219 971 q 312 957 289 971 q 350 919 336 943 q 364 868 364 896 q 333 797 364 826 q 261 767 303 767 q 190 797 219 767 q 160 868 160 826 m 461 868 q 491 940 461 910 q 563 971 521 971 q 634 940 604 971 q 664 868 664 910 q 634 797 664 826 q 563 767 604 767 q 491 797 521 767 q 461 868 461 826 z "},"à":{"ha":820,"x_min":43,"x_max":739,"o":"m 535 71 q 459 6 498 26 q 364 -14 420 -14 q 164 64 253 -14 q 43 353 43 171 q 150 625 43 520 q 360 718 243 718 q 455 699 416 718 q 536 637 494 680 q 635 712 567 712 q 709 682 679 712 q 739 608 739 652 l 739 111 q 710 26 739 61 q 633 -10 682 -10 q 535 71 563 -10 m 247 356 q 281 230 247 284 q 382 176 315 176 q 461 200 427 176 q 512 263 494 224 q 529 346 529 302 q 493 476 529 425 q 382 528 457 528 q 283 475 319 528 q 247 356 247 421 m 492 775 l 277 840 q 239 868 253 848 q 225 914 225 887 q 246 958 225 940 q 296 976 268 976 q 319 974 311 976 l 538 910 q 578 884 563 902 q 593 840 593 865 q 572 790 593 810 q 521 769 551 769 q 492 775 511 769 z "},"å":{"ha":820,"x_min":43,"x_max":739,"o":"m 535 71 q 459 6 498 26 q 364 -14 420 -14 q 164 64 253 -14 q 43 353 43 171 q 150 625 43 520 q 360 718 243 718 q 455 699 416 718 q 536 637 494 680 q 635 712 567 712 q 709 682 679 712 q 739 608 739 652 l 739 111 q 710 26 739 61 q 633 -10 682 -10 q 535 71 563 -10 m 247 356 q 281 230 247 284 q 382 176 315 176 q 461 200 427 176 q 512 263 494 224 q 529 346 529 302 q 493 476 529 425 q 382 528 457 528 q 283 475 319 528 q 247 356 247 421 m 282 892 q 320 981 282 944 q 410 1018 358 1018 q 473 1001 443 1018 q 519 954 502 984 q 536 892 536 925 q 499 802 536 840 q 410 764 462 764 q 347 781 376 764 q 300 828 317 799 q 282 892 282 858 m 352 892 q 369 851 352 868 q 410 833 386 833 q 450 851 433 833 q 467 892 467 868 q 450 932 467 915 q 410 949 433 949 q 369 932 386 949 q 352 892 352 915 z "},"ã":{"ha":820,"x_min":43,"x_max":739,"o":"m 535 71 q 459 6 498 26 q 364 -14 420 -14 q 164 64 253 -14 q 43 353 43 171 q 150 625 43 520 q 360 718 243 718 q 455 699 416 718 q 536 637 494 680 q 635 712 567 712 q 709 682 679 712 q 739 608 739 652 l 739 111 q 710 26 739 61 q 633 -10 682 -10 q 535 71 563 -10 m 247 356 q 281 230 247 284 q 382 176 315 176 q 461 200 427 176 q 512 263 494 224 q 529 346 529 302 q 493 476 529 425 q 382 528 457 528 q 283 475 319 528 q 247 356 247 421 m 135 824 q 179 923 135 883 q 285 964 223 962 q 404 938 351 964 l 461 908 q 510 895 486 895 q 538 903 528 895 q 557 928 547 911 q 613 965 576 965 q 663 947 642 965 q 684 900 684 928 q 660 824 684 857 q 598 771 636 790 q 519 753 560 753 q 404 786 471 753 q 309 824 337 821 q 266 800 279 824 l 250 775 q 201 751 235 751 q 153 772 172 751 q 135 824 135 793 z "},"ç":{"ha":676,"x_min":43,"x_max":626,"o":"m 467 -8 l 345 -165 q 288 -204 317 -204 q 240 -184 260 -204 q 219 -138 219 -164 q 236 -95 219 -116 l 307 -1 q 213 28 251 7 q 136 92 174 49 q 43 356 43 193 q 70 505 43 433 q 150 624 96 576 q 261 692 199 668 q 386 717 322 717 q 548 688 472 717 q 625 589 625 659 q 602 521 625 550 q 540 492 579 492 q 471 511 520 493 q 393 528 429 528 q 293 482 339 528 q 247 351 247 434 q 266 261 247 301 q 320 198 284 220 q 407 175 357 175 q 483 196 439 175 q 539 213 528 213 q 601 189 576 213 q 626 131 626 166 q 583 45 626 74 q 467 -8 540 17 z "},"©":{"ha":1108,"x_min":74,"x_max":1035,"o":"m 557 944 q 796 879 686 944 q 971 702 906 813 q 1035 463 1035 591 q 998 279 1035 366 q 895 124 961 191 q 741 18 828 56 q 557 -19 654 -19 q 315 46 427 -19 q 139 222 204 111 q 74 463 74 333 q 139 704 74 593 q 315 880 204 815 q 557 944 426 944 m 555 851 q 364 799 452 851 q 226 656 277 746 q 175 463 175 566 q 226 270 175 359 q 365 127 277 180 q 555 75 452 75 q 745 128 659 75 q 882 271 832 181 q 932 463 932 360 q 882 655 932 566 q 745 798 832 745 q 555 851 659 851 m 306 482 q 340 621 306 559 q 436 718 375 683 q 576 753 498 753 q 682 734 631 753 q 739 672 733 716 q 726 627 739 644 q 690 610 713 610 q 643 622 679 610 q 579 636 609 636 q 474 588 510 636 q 439 468 439 541 q 486 331 439 376 q 578 296 523 296 q 628 304 604 296 l 665 322 q 690 328 683 328 q 730 310 715 328 q 744 268 744 292 q 706 210 744 233 q 572 179 651 179 q 389 250 464 179 q 306 482 306 330 z "},"°":{"ha":736,"x_min":147,"x_max":589,"o":"m 589 710 q 558 600 589 650 q 476 521 528 550 q 365 492 424 492 q 260 521 310 492 q 178 599 209 550 q 147 704 147 648 q 176 820 147 767 q 255 903 204 872 q 368 933 306 933 q 479 903 428 933 q 560 822 530 873 q 589 710 589 770 m 502 711 q 463 808 502 767 q 368 849 424 849 q 300 829 331 849 q 251 777 269 810 q 233 707 233 744 q 274 616 233 655 q 365 576 314 576 q 461 616 420 576 q 502 711 502 656 z "},"÷":{"ha":736,"x_min":32,"x_max":703,"o":"m 32 553 l 703 553 l 703 449 l 32 449 l 32 553 m 368 818 q 424 794 400 818 q 447 739 447 771 q 424 683 447 707 q 368 660 400 660 q 312 683 336 660 q 288 739 288 707 q 311 794 288 771 q 368 818 335 818 m 367 342 q 424 318 400 342 q 447 261 447 294 q 423 205 447 229 q 367 182 399 182 q 327 193 346 182 q 298 222 309 203 q 288 261 288 240 q 311 318 288 294 q 367 342 334 342 z "},"é":{"ha":777,"x_min":44,"x_max":732,"o":"m 264 285 q 325 196 285 223 q 421 164 368 164 q 536 192 480 164 l 594 221 q 633 231 609 228 q 676 219 655 231 q 709 188 696 208 q 721 147 721 168 q 639 43 721 90 q 410 -14 539 -14 q 249 19 325 -14 q 121 117 174 53 q 44 356 44 209 q 91 537 44 453 q 218 669 137 620 q 396 718 299 718 q 566 672 489 718 q 688 547 644 626 q 732 378 732 469 q 712 307 732 329 q 645 285 692 285 l 264 285 m 532 424 q 393 551 499 551 q 257 424 299 551 l 532 424 m 260 910 l 478 974 q 501 976 486 976 q 549 959 529 976 q 572 914 570 941 q 521 840 572 856 l 306 775 q 276 769 286 769 q 225 790 247 769 q 204 840 204 811 q 220 884 204 865 q 260 910 235 903 z "},"ê":{"ha":777,"x_min":44,"x_max":732,"o":"m 264 285 q 325 196 285 223 q 421 164 368 164 q 536 192 480 164 l 594 221 q 633 231 609 228 q 676 219 655 231 q 709 188 696 208 q 721 147 721 168 q 639 43 721 90 q 410 -14 539 -14 q 249 19 325 -14 q 121 117 174 53 q 44 356 44 209 q 91 537 44 453 q 218 669 137 620 q 396 718 299 718 q 566 672 489 718 q 688 547 644 626 q 732 378 732 469 q 712 307 732 329 q 645 285 692 285 l 264 285 m 532 424 q 393 551 499 551 q 257 424 299 551 l 532 424 m 389 812 l 232 753 q 203 747 212 747 q 155 770 175 747 q 135 821 135 792 q 148 858 135 841 q 180 882 161 876 l 361 949 q 387 954 377 954 q 401 952 392 954 q 412 949 410 949 l 589 889 q 643 822 643 869 q 621 771 643 793 q 571 750 600 750 q 554 753 565 750 l 389 812 z "},"ë":{"ha":777,"x_min":44,"x_max":732,"o":"m 264 285 q 325 196 285 223 q 421 164 368 164 q 536 192 480 164 l 594 221 q 633 231 609 228 q 676 219 655 231 q 709 188 696 208 q 721 147 721 168 q 639 43 721 90 q 410 -14 539 -14 q 249 19 325 -14 q 121 117 174 53 q 44 356 44 209 q 91 537 44 453 q 218 669 137 620 q 396 718 299 718 q 566 672 489 718 q 688 547 644 626 q 732 378 732 469 q 712 307 732 329 q 645 285 692 285 l 264 285 m 532 424 q 393 551 499 551 q 257 424 299 551 l 532 424 m 139 868 q 169 940 139 910 q 240 971 198 971 q 291 957 268 971 q 329 919 315 943 q 343 868 343 896 q 312 797 343 826 q 240 767 282 767 q 169 797 198 767 q 139 868 139 826 m 440 868 q 470 940 440 910 q 542 971 500 971 q 613 940 583 971 q 643 868 643 910 q 613 797 643 826 q 542 767 583 767 q 470 797 500 767 q 440 868 440 826 z "},"è":{"ha":777,"x_min":44,"x_max":732,"o":"m 264 285 q 325 196 285 223 q 421 164 368 164 q 536 192 480 164 l 594 221 q 633 231 609 228 q 676 219 655 231 q 709 188 696 208 q 721 147 721 168 q 639 43 721 90 q 410 -14 539 -14 q 249 19 325 -14 q 121 117 174 53 q 44 356 44 209 q 91 537 44 453 q 218 669 137 620 q 396 718 299 718 q 566 672 489 718 q 688 547 644 626 q 732 378 732 469 q 712 307 732 329 q 645 285 692 285 l 264 285 m 532 424 q 393 551 499 551 q 257 424 299 551 l 532 424 m 471 775 l 256 840 q 218 868 232 848 q 204 914 204 887 q 225 958 204 940 q 275 976 247 976 q 298 974 290 976 l 517 910 q 557 884 542 902 q 572 840 572 865 q 551 790 572 810 q 500 769 530 769 q 471 775 490 769 z "},"í":{"ha":397,"x_min":8,"x_max":376,"o":"m 95 104 l 95 600 q 122 680 95 648 q 196 712 149 712 q 271 680 243 712 q 299 600 299 648 l 299 104 q 271 23 299 55 q 196 -10 244 -10 q 122 23 150 -10 q 95 104 95 56 m 64 907 l 282 971 q 306 974 290 974 q 354 956 333 974 q 376 911 374 939 q 325 838 376 853 l 110 772 q 81 767 90 767 q 30 788 51 767 q 8 838 8 808 q 24 881 8 863 q 64 907 40 900 z "},"î":{"ha":397,"x_min":-54,"x_max":454,"o":"m 95 104 l 95 600 q 122 680 95 648 q 196 712 149 712 q 271 680 243 712 q 299 600 299 648 l 299 104 q 271 23 299 55 q 196 -10 244 -10 q 122 23 150 -10 q 95 104 95 56 m 200 810 l 43 750 q 14 745 23 745 q -34 767 -14 745 q -54 818 -54 790 q -41 856 -54 838 q -8 879 -27 873 l 172 946 q 198 951 189 951 q 212 949 203 951 q 223 946 221 946 l 400 886 q 454 820 454 867 q 432 769 454 790 q 382 747 411 747 q 365 750 376 747 l 200 810 z "},"ï":{"ha":397,"x_min":-42,"x_max":463,"o":"m 95 104 l 95 600 q 122 680 95 648 q 196 712 149 712 q 271 680 243 712 q 299 600 299 648 l 299 104 q 271 23 299 55 q 196 -10 244 -10 q 122 23 150 -10 q 95 104 95 56 m -42 865 q -12 938 -42 907 q 60 968 18 968 q 111 954 87 968 q 148 916 134 940 q 162 865 162 893 q 132 794 162 824 q 60 764 101 764 q -12 794 18 764 q -42 865 -42 824 m 260 865 q 290 938 260 907 q 361 968 319 968 q 433 938 403 968 q 463 865 463 907 q 433 794 463 824 q 361 764 403 764 q 290 794 319 764 q 260 865 260 824 z "},"ì":{"ha":397,"x_min":8,"x_max":376,"o":"m 95 104 l 95 600 q 122 680 95 648 q 196 712 149 712 q 271 680 243 712 q 299 600 299 648 l 299 104 q 271 23 299 55 q 196 -10 244 -10 q 122 23 150 -10 q 95 104 95 56 m 275 775 l 60 840 q 22 868 36 848 q 8 914 8 887 q 30 958 8 940 q 79 976 51 976 q 103 974 95 976 l 321 910 q 361 884 346 902 q 376 840 376 865 q 355 790 376 810 q 304 769 334 769 q 275 775 295 769 z "},"¬":{"ha":736,"x_min":67,"x_max":668,"o":"m 451 0 l 451 211 l 67 211 l 67 406 l 668 406 l 668 0 l 451 0 z "},"µ":{"ha":860,"x_min":100,"x_max":760,"o":"m 100 -237 l 100 665 l 304 665 l 304 321 q 308 253 304 280 q 327 203 312 227 q 432 144 365 144 q 528 198 500 144 q 555 327 555 251 l 555 665 l 760 665 l 760 0 l 555 0 l 555 89 q 431 -13 514 -13 q 304 68 349 -13 l 304 -237 l 100 -237 z "},"ñ":{"ha":799,"x_min":81,"x_max":718,"o":"m 279 642 q 365 699 322 682 q 465 717 407 717 q 645 655 573 717 q 703 572 687 618 q 718 460 718 526 l 718 104 q 691 23 718 55 q 615 -10 664 -10 q 542 23 569 -10 q 514 104 514 56 l 514 413 q 483 505 514 468 q 397 542 452 542 q 340 525 366 542 q 299 480 314 508 q 285 421 285 452 l 285 104 q 258 23 285 55 q 182 -10 230 -10 q 108 23 136 -10 q 81 104 81 56 l 81 593 q 106 676 81 642 q 179 712 132 710 q 279 642 250 712 m 125 822 q 169 921 125 882 q 275 963 213 961 q 394 936 341 963 l 451 907 q 500 893 476 893 q 528 901 518 893 q 547 926 537 909 q 603 964 566 964 q 653 945 632 964 q 674 899 674 926 q 650 822 674 856 q 588 770 627 789 q 510 751 550 751 q 394 785 461 751 q 299 822 327 820 q 256 799 269 822 l 240 774 q 192 750 225 750 q 144 771 162 750 q 125 822 125 791 z "},"ó":{"ha":772,"x_min":44,"x_max":726,"o":"m 44 351 q 67 490 44 424 q 136 607 90 557 q 250 689 184 659 q 386 718 316 718 q 522 689 455 718 q 636 607 589 659 q 704 491 682 556 q 726 351 726 425 q 704 214 726 279 q 636 97 682 149 q 523 16 589 45 q 388 -14 457 -14 q 250 16 317 -14 q 136 97 183 45 q 44 351 44 195 m 246 351 q 262 269 246 310 q 308 202 277 229 q 382 176 339 176 q 459 202 426 176 q 509 269 492 228 q 526 351 526 309 q 509 435 526 394 q 459 502 492 476 q 382 528 426 528 q 282 473 318 528 q 246 351 246 418 m 257 910 l 475 974 q 498 976 483 976 q 547 959 526 976 q 569 914 567 941 q 518 840 569 856 l 303 775 q 274 769 283 769 q 223 790 244 769 q 201 840 201 811 q 217 884 201 865 q 257 910 233 903 z "},"ô":{"ha":772,"x_min":44,"x_max":726,"o":"m 44 351 q 67 490 44 424 q 136 607 90 557 q 250 689 184 659 q 386 718 316 718 q 522 689 455 718 q 636 607 589 659 q 704 491 682 556 q 726 351 726 425 q 704 214 726 279 q 636 97 682 149 q 523 16 589 45 q 388 -14 457 -14 q 250 16 317 -14 q 136 97 183 45 q 44 351 44 195 m 246 351 q 262 269 246 310 q 308 202 277 229 q 382 176 339 176 q 459 202 426 176 q 509 269 492 228 q 526 351 526 309 q 509 435 526 394 q 459 502 492 476 q 382 528 426 528 q 282 473 318 528 q 246 351 246 418 m 386 812 l 229 753 q 200 747 210 747 q 152 770 172 747 q 132 821 132 792 q 145 858 132 841 q 178 882 159 876 l 358 949 q 385 954 375 954 q 398 952 389 954 q 410 949 407 949 l 586 889 q 640 822 640 869 q 618 771 640 793 q 568 750 597 750 q 551 753 562 750 l 386 812 z "},"ö":{"ha":772,"x_min":44,"x_max":726,"o":"m 44 351 q 67 490 44 424 q 136 607 90 557 q 250 689 184 659 q 386 718 316 718 q 522 689 455 718 q 636 607 589 659 q 704 491 682 556 q 726 351 726 425 q 704 214 726 279 q 636 97 682 149 q 523 16 589 45 q 388 -14 457 -14 q 250 16 317 -14 q 136 97 183 45 q 44 351 44 195 m 246 351 q 262 269 246 310 q 308 202 277 229 q 382 176 339 176 q 459 202 426 176 q 509 269 492 228 q 526 351 526 309 q 509 435 526 394 q 459 502 492 476 q 382 528 426 528 q 282 473 318 528 q 246 351 246 418 m 136 868 q 166 940 136 910 q 237 971 196 971 q 288 957 265 971 q 326 919 312 943 q 340 868 340 896 q 310 797 340 826 q 237 767 279 767 q 166 797 196 767 q 136 868 136 826 m 437 868 q 467 940 437 910 q 539 971 497 971 q 610 940 581 971 q 640 868 640 910 q 610 797 640 826 q 539 767 581 767 q 467 797 497 767 q 437 868 437 826 z "},"ò":{"ha":772,"x_min":44,"x_max":726,"o":"m 44 351 q 67 490 44 424 q 136 607 90 557 q 250 689 184 659 q 386 718 316 718 q 522 689 455 718 q 636 607 589 659 q 704 491 682 556 q 726 351 726 425 q 704 214 726 279 q 636 97 682 149 q 523 16 589 45 q 388 -14 457 -14 q 250 16 317 -14 q 136 97 183 45 q 44 351 44 195 m 246 351 q 262 269 246 310 q 308 202 277 229 q 382 176 339 176 q 459 202 426 176 q 509 269 492 228 q 526 351 526 309 q 509 435 526 394 q 459 502 492 476 q 382 528 426 528 q 282 473 318 528 q 246 351 246 418 m 469 775 l 254 840 q 217 868 231 848 q 203 914 203 887 q 224 958 203 940 q 274 976 245 976 q 297 974 289 976 l 515 910 q 555 884 540 902 q 571 840 571 865 q 549 790 571 810 q 498 769 528 769 q 469 775 489 769 z "},"õ":{"ha":772,"x_min":44,"x_max":726,"o":"m 44 351 q 67 490 44 424 q 136 607 90 557 q 250 689 184 659 q 386 718 316 718 q 522 689 455 718 q 636 607 589 659 q 704 491 682 556 q 726 351 726 425 q 704 214 726 279 q 636 97 682 149 q 523 16 589 45 q 388 -14 457 -14 q 250 16 317 -14 q 136 97 183 45 q 44 351 44 195 m 246 351 q 262 269 246 310 q 308 202 277 229 q 382 176 339 176 q 459 202 426 176 q 509 269 492 228 q 526 351 526 309 q 509 435 526 394 q 459 502 492 476 q 382 528 426 528 q 282 473 318 528 q 246 351 246 418 m 113 824 q 157 923 113 883 q 262 964 201 962 q 382 938 329 964 l 439 908 q 488 895 464 895 q 515 903 506 895 q 535 928 525 911 q 590 965 553 965 q 640 947 619 965 q 661 900 661 928 q 638 824 661 857 q 576 771 614 790 q 497 753 538 753 q 382 786 449 753 q 286 824 314 821 q 243 800 257 824 l 228 775 q 179 751 212 751 q 131 772 150 751 q 113 824 113 793 z "},"±":{"ha":736,"x_min":32,"x_max":703,"o":"m 32 558 l 313 558 l 313 836 l 421 836 l 421 558 l 703 558 l 703 454 l 421 454 l 421 186 l 313 186 l 313 454 l 32 454 l 32 558 m 32 131 l 703 131 l 703 26 l 32 26 l 32 131 z "},"®":{"ha":1108,"x_min":74,"x_max":1035,"o":"m 557 944 q 796 879 686 944 q 971 702 906 813 q 1035 463 1035 591 q 998 279 1035 366 q 895 124 961 191 q 741 18 828 56 q 557 -19 654 -19 q 315 46 427 -19 q 139 222 204 111 q 74 463 74 333 q 139 704 74 593 q 315 880 204 815 q 557 944 426 944 m 555 851 q 364 799 452 851 q 226 656 277 746 q 175 463 175 566 q 226 270 175 359 q 365 127 277 180 q 555 75 452 75 q 745 128 659 75 q 882 271 832 181 q 932 463 932 360 q 882 655 932 565 q 745 798 832 745 q 555 851 658 851 m 488 419 l 488 258 q 470 207 487 227 q 425 188 454 188 q 378 208 395 188 q 361 258 361 228 l 361 669 q 381 726 361 706 q 437 746 400 746 l 564 746 q 700 703 649 746 q 757 581 757 657 q 714 464 757 505 q 628 424 684 436 l 735 306 q 764 261 759 281 q 750 210 764 230 q 714 188 735 191 q 650 215 671 188 l 488 419 m 488 508 l 565 508 q 614 525 594 508 q 633 571 633 542 q 612 617 633 598 q 563 636 591 636 l 488 636 l 488 508 z "},"™":{"ha":1208,"x_min":11,"x_max":1152,"o":"m 299 806 l 299 437 q 278 384 299 405 q 227 362 258 362 q 176 384 196 362 q 156 437 156 406 l 156 806 l 82 806 q 32 822 53 806 q 11 865 11 838 q 32 910 11 893 q 82 926 53 926 l 370 926 q 418 910 398 926 q 439 865 439 895 q 418 822 439 838 q 368 806 397 806 l 299 806 m 647 675 l 606 426 q 581 385 603 406 q 522 364 560 364 q 479 387 495 364 q 464 449 464 411 l 535 860 q 565 914 540 893 q 624 935 589 935 q 715 878 698 935 l 807 612 l 890 867 q 925 916 901 897 q 981 935 950 935 q 1042 916 1014 935 q 1075 865 1070 897 q 1088 798 1080 840 q 1110 676 1096 756 q 1138 524 1125 597 q 1152 449 1152 451 q 1093 364 1152 364 q 1010 426 1019 364 l 967 675 l 893 440 q 864 381 881 400 q 811 362 848 362 q 732 425 752 362 l 647 675 z "},"ú":{"ha":794,"x_min":81,"x_max":714,"o":"m 714 600 l 714 275 q 664 107 714 168 q 547 17 618 48 q 397 -14 475 -14 q 248 17 320 -14 q 131 107 176 49 q 81 275 81 172 l 81 600 q 108 680 81 648 q 182 712 135 712 q 257 680 230 712 q 285 600 285 648 l 285 300 q 317 213 285 242 q 397 179 350 179 q 478 213 442 179 q 510 300 510 242 l 510 600 q 537 680 510 648 q 612 712 564 712 q 687 680 660 712 q 714 600 714 648 m 268 910 l 486 974 q 510 976 494 976 q 558 959 537 976 q 581 914 578 941 q 529 840 581 856 l 314 775 q 285 769 294 769 q 234 790 255 769 q 213 840 213 811 q 228 884 213 865 q 268 910 244 903 z "},"û":{"ha":794,"x_min":81,"x_max":714,"o":"m 714 600 l 714 275 q 664 107 714 168 q 547 17 618 48 q 397 -14 475 -14 q 248 17 320 -14 q 131 107 176 49 q 81 275 81 172 l 81 600 q 108 680 81 648 q 182 712 135 712 q 257 680 230 712 q 285 600 285 648 l 285 300 q 317 213 285 242 q 397 179 350 179 q 478 213 442 179 q 510 300 510 242 l 510 600 q 537 680 510 648 q 612 712 564 712 q 687 680 660 712 q 714 600 714 648 m 397 812 l 240 753 q 211 747 221 747 q 163 770 183 747 q 143 821 143 792 q 156 858 143 841 q 189 882 170 876 l 370 949 q 396 954 386 954 q 409 952 400 954 q 421 949 418 949 l 597 889 q 651 822 651 869 q 630 771 651 793 q 579 750 608 750 q 563 753 573 750 l 397 812 z "},"ü":{"ha":794,"x_min":81,"x_max":714,"o":"m 714 600 l 714 275 q 664 107 714 168 q 547 17 618 48 q 397 -14 475 -14 q 248 17 320 -14 q 131 107 176 49 q 81 275 81 172 l 81 600 q 108 680 81 648 q 182 712 135 712 q 257 680 230 712 q 285 600 285 648 l 285 300 q 317 213 285 242 q 397 179 350 179 q 478 213 442 179 q 510 300 510 242 l 510 600 q 537 680 510 648 q 612 712 564 712 q 687 680 660 712 q 714 600 714 648 m 147 869 q 177 942 147 911 q 249 972 207 972 q 300 958 276 972 q 337 920 323 944 q 351 869 351 897 q 321 798 351 828 q 249 768 290 768 q 177 798 207 768 q 147 869 147 828 m 449 869 q 478 942 449 911 q 550 972 508 972 q 622 942 592 972 q 651 869 651 911 q 622 798 651 828 q 550 768 592 768 q 478 798 508 768 q 449 869 449 828 z "},"ù":{"ha":794,"x_min":81,"x_max":714,"o":"m 714 600 l 714 275 q 664 107 714 168 q 547 17 618 48 q 397 -14 475 -14 q 248 17 320 -14 q 131 107 176 49 q 81 275 81 172 l 81 600 q 108 680 81 648 q 182 712 135 712 q 257 680 230 712 q 285 600 285 648 l 285 300 q 317 213 285 242 q 397 179 350 179 q 478 213 442 179 q 510 300 510 242 l 510 600 q 537 680 510 648 q 612 712 564 712 q 687 680 660 712 q 714 600 714 648 m 480 775 l 266 840 q 228 868 242 848 q 214 914 214 887 q 235 958 214 940 q 285 976 256 976 q 308 974 300 976 l 527 910 q 567 884 551 902 q 582 840 582 865 q 561 790 582 810 q 510 769 539 769 q 480 775 500 769 z "},"ÿ":{"ha":732,"x_min":36,"x_max":697,"o":"m 365 317 l 485 617 q 524 688 503 662 q 579 714 545 714 q 634 703 606 714 q 680 671 662 692 q 697 624 697 650 q 686 560 697 588 l 357 -223 q 271 -296 328 -296 q 194 -271 229 -296 q 157 -207 160 -247 q 170 -144 157 -178 l 258 64 l 48 561 q 36 625 36 593 q 72 689 36 665 q 153 714 109 714 q 208 688 188 714 q 246 618 229 662 l 365 317 m 118 869 q 148 942 118 911 q 219 972 178 972 q 270 958 247 972 q 308 920 294 944 q 322 869 322 897 q 292 798 322 828 q 219 768 261 768 q 148 798 178 768 q 118 869 118 828 m 419 869 q 449 942 419 911 q 521 972 479 972 q 592 942 563 972 q 622 869 622 911 q 592 798 622 828 q 521 768 563 768 q 449 798 479 768 q 419 869 419 828 z "}," ":{"ha":390,"x_min":0,"x_max":0,"o":""}}}
